<svg width="263" height="500" viewBox="0 0 263 500" fill="none" xmlns="http://www.w3.org/2000/svg">
<rect width="263" height="500" fill="#EDF3F8"/>
<g clip-path="url(#clip0_0_1)">
<rect width="1440" height="3066" transform="translate(-917 -162)" fill="#EDF3F8"/>
<g opacity="0.15">
<circle cx="273" cy="56" r="390" fill="#36536B"/>
<circle cx="273" cy="56" r="390" fill="#36536B"/>
<mask id="mask0_0_1" style="mask-type:alpha" maskUnits="userSpaceOnUse" x="-117" y="-334" width="780" height="780">
<circle cx="273" cy="56" r="390" fill="white"/>
</mask>
<g mask="url(#mask0_0_1)">
</g>
</g>
<g filter="url(#filter0_d_0_1)">
<path fill-rule="evenodd" clip-rule="evenodd" d="M35.776 0.569458H227.009C245.35 0.569458 260.217 14.8048 260.217 32.365V467.635C260.217 485.195 245.35 499.431 227.009 499.431H35.776C17.4357 499.431 2.56787 485.195 2.56787 467.635V32.365C2.56787 14.8048 17.4357 0.569458 35.776 0.569458Z" fill="#213648"/>
</g>
<path opacity="0.595562" fill-rule="evenodd" clip-rule="evenodd" d="M227.749 0H34.9226C25.92 0.548956 17.6174 4.65694 10.0146 12.3239C14.9041 8.05589 23.6249 2.34456 35.1546 2.34456C35.1546 2.34456 219.83 2.34456 227.517 2.34456C239.046 2.34456 247.767 8.05589 252.656 12.3239C245.054 4.65694 236.751 0.548956 227.749 0Z" fill="url(#paint0_linear_0_1)" fill-opacity="0.65"/>
<path opacity="0.75" fill-rule="evenodd" clip-rule="evenodd" d="M254.999 462.671V34.9818C254.999 23.5065 250.782 19.2644 248.266 16.5405C245.75 13.8166 245.643 12.4272 249.258 14.4839C252.873 16.5405 260.103 22.5306 260.103 34.9818V462.671C260.103 475.122 252.873 481.112 249.258 483.169C245.643 485.225 245.75 483.836 248.266 481.112C250.782 478.388 254.999 474.146 254.999 462.671Z" fill="url(#paint1_linear_0_1)"/>
<path opacity="0.75" fill-rule="evenodd" clip-rule="evenodd" d="M7.67196 462.671V34.9818C7.67196 23.5065 11.8894 19.2644 14.4053 16.5405C16.9212 13.8166 17.0283 12.4272 13.4134 14.4839C9.79843 16.5405 2.56798 22.5306 2.56798 34.9818V462.671C2.56798 475.122 9.79843 481.112 13.4134 483.169C17.0283 485.225 16.9212 483.836 14.4053 481.112C11.8894 478.388 7.67196 474.146 7.67196 462.671Z" fill="url(#paint2_linear_0_1)"/>
<path fill-rule="evenodd" clip-rule="evenodd" d="M0 103.556C0 102.452 0.89543 101.556 2 101.556H2.96454C4.06911 101.556 4.96454 102.452 4.96454 103.556V163.907C4.96454 165.012 4.06911 165.907 2.96454 165.907H2C0.89543 165.907 0 165.012 0 163.907V103.556Z" fill="#2E423C"/>
<path fill-rule="evenodd" clip-rule="evenodd" d="M257.535 156.043C257.535 154.939 258.431 154.043 259.535 154.043H260.5C261.605 154.043 262.5 154.939 262.5 156.043V198.993C262.5 200.098 261.605 200.993 260.5 200.993H259.535C258.431 200.993 257.535 200.098 257.535 198.993V156.043Z" fill="#2E423C"/>
<g clip-path="url(#clip1_0_1)">
<path fill-rule="evenodd" clip-rule="evenodd" d="M108.676 12.4445L34.2698 12.4445C23.1653 12.4445 15.0742 20.0078 15.0742 29.8859V452.276C15.0742 465.155 27.5765 476.567 41.7134 476.567H221.046C234.664 476.567 247.686 465.067 247.686 452.276V31.0276C247.686 19.188 238.896 12.5149 228.49 12.4445L152.904 12.4445C152.618 12.4914 147.425 14.6262 145.231 20.0078C143.036 25.3893 138.621 29.6793 133.787 29.6793H128.172C125.874 29.6793 119.824 27.4496 116.76 20.0078C113.697 12.5659 108.963 12.4914 108.676 12.4445Z" fill="white"/>
<mask id="mask1_0_1" style="mask-type:alpha" maskUnits="userSpaceOnUse" x="15" y="12" width="233" height="465">
<path fill-rule="evenodd" clip-rule="evenodd" d="M108.676 12.4445L34.2698 12.4445C23.1653 12.4445 15.0742 20.0078 15.0742 29.8859V452.276C15.0742 465.155 27.5765 476.567 41.7134 476.567H221.046C234.664 476.567 247.686 465.067 247.686 452.276V31.0276C247.686 19.188 238.896 12.5149 228.49 12.4445L152.904 12.4445C152.618 12.4914 147.425 14.6262 145.231 20.0078C143.036 25.3893 138.621 29.6793 133.787 29.6793H128.172C125.874 29.6793 119.824 27.4496 116.76 20.0078C113.697 12.5659 108.963 12.4914 108.676 12.4445Z" fill="white"/>
</mask>
<g mask="url(#mask1_0_1)">
<rect x="15" y="12.4445" width="233" height="465" fill="url(#paint3_linear_0_1)"/>
<path d="M94.504 141V123.672H90.376V121.032C91.6987 121.032 92.7653 120.909 93.576 120.664C94.3973 120.408 95.0107 120.045 95.416 119.576C95.8213 119.096 96.0613 118.525 96.136 117.864H99.24V141H94.504ZM104.496 141V138.696V137.512C104.496 136.339 104.714 135.325 105.152 134.472C105.589 133.608 106.165 132.861 106.88 132.232C107.605 131.592 108.394 131.032 109.248 130.552C110.112 130.072 110.976 129.619 111.84 129.192C112.704 128.765 113.493 128.339 114.208 127.912C114.933 127.475 115.514 126.989 115.952 126.456C116.389 125.923 116.608 125.293 116.608 124.568C116.608 123.64 116.282 122.883 115.632 122.296C114.992 121.709 114.112 121.416 112.992 121.416C111.829 121.416 110.842 121.752 110.032 122.424C109.221 123.096 108.72 124.109 108.528 125.464H104.064C104.085 123.992 104.426 122.659 105.088 121.464C105.76 120.259 106.762 119.304 108.096 118.6C109.429 117.896 111.104 117.544 113.12 117.544C114.848 117.544 116.336 117.837 117.584 118.424C118.842 119.011 119.813 119.827 120.496 120.872C121.178 121.917 121.52 123.139 121.52 124.536C121.52 125.699 121.306 126.701 120.88 127.544C120.453 128.387 119.888 129.107 119.184 129.704C118.48 130.301 117.706 130.824 116.864 131.272C116.021 131.72 115.178 132.136 114.336 132.52C113.504 132.904 112.736 133.299 112.032 133.704C111.328 134.099 110.762 134.547 110.336 135.048C109.909 135.549 109.696 136.152 109.696 136.856V137.064H121.488V141H104.496ZM129.704 124.856V129.864H124.584V124.856H129.704ZM129.704 135.912V140.904H124.584V135.912H129.704ZM143.451 117.864H148.043V131.96H151.611V135.88H148.043V141H143.547L143.563 135.88H132.907V132.04L143.451 117.864ZM137.227 131.96H143.563V123.48L137.227 131.96ZM162.435 141.352C160.995 141.352 159.651 141.075 158.403 140.52C157.155 139.965 156.137 139.187 155.347 138.184C154.558 137.171 154.115 135.987 154.019 134.632H158.467C158.659 135.528 159.086 136.259 159.747 136.824C160.409 137.379 161.241 137.656 162.243 137.656C163.353 137.656 164.323 137.395 165.155 136.872C165.998 136.349 166.627 135.517 167.043 134.376C167.47 133.235 167.619 131.741 167.491 129.896C167.193 130.461 166.777 130.957 166.243 131.384C165.721 131.8 165.107 132.125 164.403 132.36C163.699 132.584 162.915 132.696 162.051 132.696C160.483 132.696 159.091 132.403 157.875 131.816C156.67 131.219 155.721 130.376 155.027 129.288C154.345 128.189 154.003 126.888 154.003 125.384C154.003 123.869 154.366 122.52 155.091 121.336C155.817 120.152 156.83 119.224 158.131 118.552C159.433 117.88 160.958 117.544 162.707 117.544C164.67 117.544 166.361 118.013 167.779 118.952C169.209 119.88 170.302 121.203 171.059 122.92C171.827 124.627 172.211 126.637 172.211 128.952C172.211 131.715 171.817 134.019 171.027 135.864C170.249 137.699 169.129 139.075 167.667 139.992C166.206 140.899 164.462 141.352 162.435 141.352ZM162.851 128.984C163.502 128.984 164.131 128.84 164.739 128.552C165.358 128.253 165.865 127.88 166.259 127.432C166.654 126.984 166.851 126.52 166.851 126.04C166.862 125.005 166.697 124.12 166.355 123.384C166.025 122.637 165.555 122.067 164.947 121.672C164.35 121.277 163.651 121.08 162.851 121.08C162.115 121.08 161.459 121.251 160.883 121.592C160.307 121.933 159.854 122.413 159.523 123.032C159.193 123.651 159.027 124.365 159.027 125.176C159.027 126.381 159.379 127.32 160.083 127.992C160.787 128.653 161.71 128.984 162.851 128.984Z" fill="white"/>
</g>
</g>
<g filter="url(#filter1_d_0_1)">
<rect x="22" y="167" width="218" height="87" rx="5" fill="#FBFCFE"/>
</g>
<g clip-path="url(#clip2_0_1)">
<path d="M44.58 185.77L42.065 189.96V193H40.605V189.955L38.095 185.77H39.675L41.34 188.7L42.985 185.77H44.58ZM46.5677 193.1C46.061 193.1 45.6193 192.992 45.2427 192.775C44.8693 192.558 44.5793 192.252 44.3727 191.855C44.1693 191.458 44.0677 190.988 44.0677 190.445C44.0677 189.902 44.1693 189.427 44.3727 189.02C44.5793 188.613 44.8693 188.297 45.2427 188.07C45.6193 187.843 46.0627 187.73 46.5727 187.73C47.0827 187.73 47.5243 187.842 47.8977 188.065C48.271 188.285 48.5593 188.598 48.7627 189.005C48.966 189.412 49.0677 189.892 49.0677 190.445C49.0677 190.965 48.9677 191.425 48.7677 191.825C48.571 192.222 48.286 192.533 47.9127 192.76C47.5427 192.987 47.0943 193.1 46.5677 193.1ZM46.5727 192.015C46.8293 192.015 47.036 191.94 47.1927 191.79C47.3493 191.64 47.4627 191.443 47.5327 191.2C47.606 190.953 47.6427 190.685 47.6427 190.395C47.6427 190.122 47.6093 189.863 47.5427 189.62C47.4793 189.377 47.3693 189.18 47.2127 189.03C47.056 188.88 46.8427 188.805 46.5727 188.805C46.316 188.805 46.1077 188.877 45.9477 189.02C45.791 189.16 45.676 189.352 45.6027 189.595C45.5293 189.835 45.4927 190.102 45.4927 190.395C45.4927 190.665 45.526 190.925 45.5927 191.175C45.6593 191.422 45.771 191.623 45.9277 191.78C46.0843 191.937 46.2993 192.015 46.5727 192.015ZM51.8777 193.1C51.6377 193.1 51.401 193.063 51.1677 192.99C50.9377 192.917 50.7277 192.808 50.5377 192.665C50.3477 192.522 50.1943 192.345 50.0777 192.135C49.9643 191.925 49.9077 191.682 49.9077 191.405V187.83H51.3677V191.22C51.3677 191.46 51.446 191.657 51.6027 191.81C51.7593 191.963 51.9893 192.04 52.2927 192.04C52.5793 192.04 52.806 191.967 52.9727 191.82C53.1427 191.67 53.2277 191.462 53.2277 191.195V187.83H54.6727V193H53.5727L53.4027 191.975C53.3427 192.278 53.2293 192.512 53.0627 192.675C52.8993 192.835 52.711 192.945 52.4977 193.005C52.2877 193.068 52.081 193.1 51.8777 193.1ZM55.8906 193V187.83H57.2956V189.055C57.379 188.792 57.4956 188.562 57.6456 188.365C57.799 188.165 57.984 188.01 58.2006 187.9C58.4173 187.787 58.6623 187.73 58.9356 187.73C58.9823 187.73 59.0256 187.733 59.0656 187.74C59.109 187.743 59.1406 187.75 59.1606 187.76V189.15C59.1306 189.137 59.094 189.128 59.0506 189.125C59.0106 189.122 58.974 189.118 58.9406 189.115C58.654 189.092 58.409 189.1 58.2056 189.14C58.0023 189.18 57.8373 189.248 57.7106 189.345C57.584 189.442 57.4923 189.56 57.4356 189.7C57.379 189.84 57.3506 189.997 57.3506 190.17V193H55.8906ZM61.7223 193L64.3123 185.77H65.8523L68.4373 193H66.9823L66.3923 191.325H63.7923L63.1873 193H61.7223ZM64.1173 190.05H66.0423L65.0873 187.18L64.1173 190.05ZM69.3379 194.61V187.83H70.8029L70.8079 188.575C70.8846 188.452 70.9779 188.34 71.0879 188.24C71.2012 188.137 71.3262 188.047 71.4629 187.97C71.5996 187.893 71.7479 187.835 71.9079 187.795C72.0679 187.752 72.2362 187.73 72.4129 187.73C72.7962 187.73 73.1379 187.825 73.4379 188.015C73.7379 188.202 73.9729 188.492 74.1429 188.885C74.3162 189.275 74.4029 189.772 74.4029 190.375C74.4029 191.002 74.3096 191.517 74.1229 191.92C73.9396 192.32 73.6862 192.617 73.3629 192.81C73.0396 193.003 72.6746 193.1 72.2679 193.1C72.1012 193.1 71.9446 193.077 71.7979 193.03C71.6512 192.987 71.5146 192.925 71.3879 192.845C71.2646 192.765 71.1529 192.673 71.0529 192.57C70.9562 192.463 70.8712 192.348 70.7979 192.225V194.61H69.3379ZM71.9179 192.03C72.2346 192.03 72.4996 191.898 72.7129 191.635C72.9296 191.372 73.0379 190.955 73.0379 190.385C73.0379 189.885 72.9346 189.495 72.7279 189.215C72.5246 188.932 72.2546 188.79 71.9179 188.79C71.5412 188.79 71.2596 188.943 71.0729 189.25C70.8896 189.553 70.7979 189.932 70.7979 190.385C70.7979 190.675 70.8379 190.945 70.9179 191.195C71.0012 191.445 71.1246 191.647 71.2879 191.8C71.4546 191.953 71.6646 192.03 71.9179 192.03ZM75.373 194.61V187.83H76.838L76.843 188.575C76.9197 188.452 77.013 188.34 77.123 188.24C77.2364 188.137 77.3614 188.047 77.498 187.97C77.6347 187.893 77.783 187.835 77.943 187.795C78.103 187.752 78.2714 187.73 78.448 187.73C78.8314 187.73 79.173 187.825 79.473 188.015C79.773 188.202 80.008 188.492 80.178 188.885C80.3514 189.275 80.438 189.772 80.438 190.375C80.438 191.002 80.3447 191.517 80.158 191.92C79.9747 192.32 79.7214 192.617 79.398 192.81C79.0747 193.003 78.7097 193.1 78.303 193.1C78.1364 193.1 77.9797 193.077 77.833 193.03C77.6864 192.987 77.5497 192.925 77.423 192.845C77.2997 192.765 77.188 192.673 77.088 192.57C76.9914 192.463 76.9064 192.348 76.833 192.225V194.61H75.373ZM77.953 192.03C78.2697 192.03 78.5347 191.898 78.748 191.635C78.9647 191.372 79.073 190.955 79.073 190.385C79.073 189.885 78.9697 189.495 78.763 189.215C78.5597 188.932 78.2897 188.79 77.953 188.79C77.5764 188.79 77.2947 188.943 77.108 189.25C76.9247 189.553 76.833 189.932 76.833 190.385C76.833 190.675 76.873 190.945 76.953 191.195C77.0364 191.445 77.1597 191.647 77.323 191.8C77.4897 191.953 77.6997 192.03 77.953 192.03Z" fill="#BA4270"/>
<path opacity="0.5" d="M185.609 191.295C185.609 191.678 185.566 192.005 185.479 192.275C185.392 192.545 185.237 192.75 185.014 192.89C184.794 193.03 184.481 193.1 184.074 193.1C183.817 193.1 183.576 193.07 183.349 193.01C183.126 192.95 182.977 192.905 182.904 192.875L182.969 191.99C183.072 192.027 183.191 192.073 183.324 192.13C183.461 192.183 183.629 192.21 183.829 192.21C184.156 192.21 184.379 192.12 184.499 191.94C184.622 191.76 184.684 191.457 184.684 191.03V185.77H185.609V191.295ZM189.041 193.1C188.771 193.097 188.516 193.058 188.276 192.985C188.039 192.908 187.829 192.797 187.646 192.65C187.462 192.503 187.317 192.322 187.211 192.105C187.107 191.885 187.056 191.63 187.056 191.34V187.83H187.981V191.245C187.981 191.582 188.084 191.855 188.291 192.065C188.501 192.275 188.816 192.38 189.236 192.38C189.616 192.38 189.921 192.282 190.151 192.085C190.384 191.885 190.501 191.588 190.501 191.195V187.83H191.421V193H190.686L190.591 192.01C190.527 192.27 190.419 192.48 190.266 192.64C190.116 192.8 189.934 192.918 189.721 192.995C189.511 193.068 189.284 193.103 189.041 193.1ZM194.698 193.1C194.338 193.1 194.003 193.045 193.693 192.935C193.387 192.822 193.132 192.647 192.928 192.41C192.725 192.17 192.597 191.865 192.543 191.495H193.383C193.43 191.698 193.513 191.868 193.633 192.005C193.757 192.138 193.91 192.24 194.093 192.31C194.277 192.377 194.477 192.41 194.693 192.41C195.04 192.41 195.32 192.345 195.533 192.215C195.747 192.085 195.853 191.885 195.853 191.615C195.853 191.425 195.797 191.273 195.683 191.16C195.573 191.043 195.402 190.958 195.168 190.905L194.098 190.64C193.682 190.54 193.348 190.383 193.098 190.17C192.848 189.957 192.723 189.658 192.723 189.275C192.72 188.972 192.792 188.705 192.938 188.475C193.085 188.245 193.305 188.063 193.598 187.93C193.892 187.797 194.257 187.73 194.693 187.73C195.253 187.73 195.705 187.857 196.048 188.11C196.395 188.36 196.575 188.728 196.588 189.215H195.773C195.74 188.968 195.628 188.773 195.438 188.63C195.252 188.483 195 188.41 194.683 188.41C194.353 188.41 194.085 188.477 193.878 188.61C193.672 188.74 193.568 188.943 193.568 189.22C193.568 189.403 193.642 189.548 193.788 189.655C193.935 189.758 194.152 189.845 194.438 189.915L195.473 190.175C195.713 190.238 195.91 190.322 196.063 190.425C196.22 190.528 196.343 190.643 196.433 190.77C196.527 190.897 196.592 191.03 196.628 191.17C196.668 191.307 196.688 191.438 196.688 191.565C196.688 191.882 196.608 192.155 196.448 192.385C196.292 192.612 196.065 192.788 195.768 192.915C195.475 193.038 195.118 193.1 194.698 193.1ZM200.5 188.505H199.335V191.72C199.335 191.903 199.353 192.038 199.39 192.125C199.43 192.208 199.495 192.262 199.585 192.285C199.678 192.308 199.805 192.32 199.965 192.32H200.53V192.94C200.466 192.963 200.37 192.983 200.24 193C200.113 193.017 199.955 193.025 199.765 193.025C199.408 193.025 199.131 192.977 198.935 192.88C198.738 192.783 198.6 192.64 198.52 192.45C198.443 192.26 198.405 192.027 198.405 191.75V188.505H197.565V187.83H198.43L198.655 186.325H199.335V187.825H200.5V188.505ZM209.028 185.77H209.953V193H209.128L205.248 187.3V193H204.323V185.77H205.208L209.028 191.39V185.77ZM213.659 193.1C213.182 193.1 212.765 192.998 212.409 192.795C212.052 192.588 211.775 192.287 211.579 191.89C211.382 191.493 211.284 191.008 211.284 190.435C211.284 189.895 211.375 189.422 211.559 189.015C211.742 188.608 212.01 188.293 212.364 188.07C212.72 187.843 213.152 187.73 213.659 187.73C214.135 187.73 214.549 187.835 214.899 188.045C215.252 188.252 215.525 188.557 215.719 188.96C215.912 189.363 216.009 189.855 216.009 190.435C216.009 190.962 215.919 191.425 215.739 191.825C215.562 192.225 215.299 192.538 214.949 192.765C214.602 192.988 214.172 193.1 213.659 193.1ZM213.659 192.37C213.969 192.37 214.23 192.292 214.444 192.135C214.657 191.978 214.819 191.753 214.929 191.46C215.039 191.167 215.094 190.818 215.094 190.415C215.094 190.045 215.045 189.713 214.949 189.42C214.852 189.123 214.697 188.888 214.484 188.715C214.274 188.542 213.999 188.455 213.659 188.455C213.345 188.455 213.08 188.533 212.864 188.69C212.647 188.843 212.482 189.067 212.369 189.36C212.259 189.653 212.204 190.005 212.204 190.415C212.204 190.778 212.254 191.108 212.354 191.405C212.454 191.702 212.61 191.937 212.824 192.11C213.037 192.283 213.315 192.37 213.659 192.37ZM223.833 187.83L222.268 193H221.358L220.178 189.185L219.058 193H218.153L216.558 187.83H217.413L218.598 191.805H218.678L219.843 187.83H220.543L221.753 191.795H221.833L222.968 187.83H223.833Z" fill="#36536B"/>
</g>
<path d="M38.23 202.62V201.77H43.7V202.62H41.495V209H40.565V202.62H38.23ZM44.7025 209V201.57H45.6025V204.59C45.6892 204.447 45.8058 204.313 45.9525 204.19C46.0992 204.063 46.2775 203.962 46.4875 203.885C46.6975 203.805 46.9408 203.765 47.2175 203.765C47.5542 203.765 47.8592 203.828 48.1325 203.955C48.4058 204.078 48.6225 204.255 48.7825 204.485C48.9425 204.715 49.0225 204.988 49.0225 205.305V209H48.0975V205.49C48.0975 205.18 47.9908 204.942 47.7775 204.775C47.5675 204.605 47.2925 204.52 46.9525 204.52C46.7225 204.52 46.5058 204.558 46.3025 204.635C46.0992 204.708 45.9342 204.822 45.8075 204.975C45.6842 205.125 45.6225 205.317 45.6225 205.55V209H44.7025ZM51.1242 206.63C51.1242 206.957 51.1776 207.253 51.2842 207.52C51.3942 207.783 51.5592 207.993 51.7792 208.15C52.0026 208.307 52.2809 208.385 52.6142 208.385C52.9442 208.385 53.2276 208.308 53.4642 208.155C53.7042 208.002 53.8576 207.78 53.9242 207.49H54.7992C54.7359 207.84 54.5959 208.135 54.3792 208.375C54.1626 208.615 53.9009 208.797 53.5942 208.92C53.2876 209.04 52.9676 209.1 52.6342 209.1C52.1509 209.1 51.7259 208.995 51.3592 208.785C50.9926 208.575 50.7059 208.273 50.4992 207.88C50.2926 207.487 50.1892 207.015 50.1892 206.465C50.1892 205.922 50.2826 205.445 50.4692 205.035C50.6559 204.625 50.9259 204.305 51.2792 204.075C51.6359 203.845 52.0642 203.73 52.5642 203.73C53.0509 203.73 53.4626 203.835 53.7992 204.045C54.1359 204.255 54.3909 204.552 54.5642 204.935C54.7409 205.315 54.8292 205.767 54.8292 206.29V206.63H51.1242ZM51.1292 206.005H53.9392C53.9392 205.708 53.8892 205.442 53.7892 205.205C53.6892 204.965 53.5359 204.777 53.3292 204.64C53.1259 204.5 52.8692 204.43 52.5592 204.43C52.2359 204.43 51.9676 204.508 51.7542 204.665C51.5442 204.818 51.3859 205.017 51.2792 205.26C51.1759 205.5 51.1259 205.748 51.1292 206.005ZM58.3353 210.61V203.83H59.2553L59.2653 204.73C59.3253 204.623 59.402 204.512 59.4953 204.395C59.592 204.278 59.7086 204.17 59.8453 204.07C59.9853 203.97 60.147 203.888 60.3303 203.825C60.517 203.762 60.7286 203.73 60.9653 203.73C61.3786 203.73 61.742 203.825 62.0553 204.015C62.372 204.202 62.6186 204.488 62.7953 204.875C62.972 205.262 63.0603 205.752 63.0603 206.345C63.0603 206.938 62.9736 207.44 62.8003 207.85C62.6303 208.257 62.3836 208.567 62.0603 208.78C61.737 208.993 61.347 209.1 60.8903 209.1C60.6603 209.1 60.4553 209.067 60.2753 209C60.0986 208.937 59.9436 208.853 59.8103 208.75C59.6803 208.643 59.5703 208.53 59.4803 208.41C59.3936 208.29 59.322 208.175 59.2653 208.065V210.61H58.3353ZM60.7153 208.38C61.142 208.38 61.4903 208.218 61.7603 207.895C62.0303 207.568 62.1653 207.062 62.1653 206.375C62.1653 205.785 62.042 205.317 61.7953 204.97C61.5486 204.623 61.1886 204.45 60.7153 204.45C60.2353 204.45 59.872 204.628 59.6253 204.985C59.3786 205.338 59.2553 205.802 59.2553 206.375C59.2553 206.745 59.3103 207.082 59.4203 207.385C59.5303 207.688 59.6936 207.93 59.9103 208.11C60.127 208.29 60.3953 208.38 60.7153 208.38ZM65.6345 209.1C65.3011 209.1 65.0061 209.042 64.7495 208.925C64.4928 208.805 64.2911 208.633 64.1445 208.41C64.0011 208.187 63.9295 207.917 63.9295 207.6C63.9295 207.027 64.1295 206.6 64.5295 206.32C64.9295 206.04 65.5711 205.89 66.4545 205.87L67.3795 205.845V205.44C67.3795 205.123 67.2845 204.873 67.0945 204.69C66.9045 204.503 66.6095 204.41 66.2095 204.41C65.9128 204.413 65.6511 204.483 65.4245 204.62C65.2011 204.757 65.0561 204.98 64.9895 205.29H64.1745C64.1945 204.953 64.2895 204.67 64.4595 204.44C64.6295 204.207 64.8661 204.03 65.1695 203.91C65.4761 203.79 65.8378 203.73 66.2545 203.73C66.7045 203.73 67.0778 203.793 67.3745 203.92C67.6745 204.047 67.8978 204.233 68.0445 204.48C68.1945 204.727 68.2695 205.03 68.2695 205.39V209H67.4795L67.4145 208.03C67.2145 208.433 66.9595 208.713 66.6495 208.87C66.3428 209.023 66.0045 209.1 65.6345 209.1ZM65.9145 208.435C66.0878 208.435 66.2595 208.403 66.4295 208.34C66.6028 208.277 66.7611 208.192 66.9045 208.085C67.0478 207.975 67.1611 207.853 67.2445 207.72C67.3311 207.583 67.3761 207.443 67.3795 207.3V206.415L66.6095 206.43C66.2161 206.437 65.8861 206.477 65.6195 206.55C65.3561 206.623 65.1578 206.738 65.0245 206.895C64.8945 207.052 64.8295 207.257 64.8295 207.51C64.8295 207.8 64.9295 208.027 65.1295 208.19C65.3328 208.353 65.5945 208.435 65.9145 208.435ZM70.193 210.65C69.8896 210.65 69.6813 210.628 69.568 210.585C69.4546 210.542 69.398 210.52 69.398 210.52V209.92L69.923 209.93C70.1163 209.937 70.2763 209.923 70.403 209.89C70.5296 209.857 70.6313 209.812 70.708 209.755C70.7846 209.698 70.843 209.635 70.883 209.565C70.9263 209.495 70.9613 209.428 70.988 209.365L71.168 208.875L69.148 203.83H70.083L71.608 207.82L73.123 203.83H74.028L71.848 209.39C71.7146 209.717 71.5646 209.972 71.398 210.155C71.2346 210.338 71.0513 210.467 70.848 210.54C70.648 210.613 70.4296 210.65 70.193 210.65ZM75.015 209V203.83H75.905V204.58C76.0483 204.353 76.245 204.155 76.495 203.985C76.745 203.815 77.07 203.73 77.47 203.73C77.6567 203.73 77.8467 203.762 78.04 203.825C78.2367 203.888 78.4167 203.983 78.58 204.11C78.7433 204.237 78.87 204.392 78.96 204.575C79.12 204.322 79.3367 204.118 79.61 203.965C79.8833 203.808 80.1917 203.73 80.535 203.73C80.715 203.73 80.9033 203.758 81.1 203.815C81.2967 203.868 81.4783 203.965 81.645 204.105C81.815 204.242 81.9533 204.433 82.06 204.68C82.1667 204.923 82.22 205.237 82.22 205.62V209H81.29V205.71C81.29 205.397 81.24 205.155 81.14 204.985C81.04 204.812 80.9083 204.69 80.745 204.62C80.585 204.55 80.4133 204.515 80.23 204.515C80.07 204.515 79.9 204.547 79.72 204.61C79.54 204.673 79.3867 204.78 79.26 204.93C79.1333 205.08 79.07 205.285 79.07 205.545V209H78.15V205.44C78.15 205.237 78.095 205.067 77.985 204.93C77.8783 204.793 77.7433 204.69 77.58 204.62C77.42 204.55 77.26 204.515 77.1 204.515C76.9233 204.515 76.745 204.55 76.565 204.62C76.3883 204.69 76.2383 204.802 76.115 204.955C75.995 205.105 75.935 205.302 75.935 205.545V209H75.015ZM84.3273 206.63C84.3273 206.957 84.3807 207.253 84.4873 207.52C84.5973 207.783 84.7623 207.993 84.9823 208.15C85.2057 208.307 85.484 208.385 85.8173 208.385C86.1473 208.385 86.4307 208.308 86.6673 208.155C86.9073 208.002 87.0607 207.78 87.1273 207.49H88.0023C87.939 207.84 87.799 208.135 87.5823 208.375C87.3657 208.615 87.104 208.797 86.7973 208.92C86.4907 209.04 86.1707 209.1 85.8373 209.1C85.354 209.1 84.929 208.995 84.5623 208.785C84.1957 208.575 83.909 208.273 83.7023 207.88C83.4957 207.487 83.3923 207.015 83.3923 206.465C83.3923 205.922 83.4857 205.445 83.6723 205.035C83.859 204.625 84.129 204.305 84.4823 204.075C84.839 203.845 85.2673 203.73 85.7673 203.73C86.254 203.73 86.6657 203.835 87.0023 204.045C87.339 204.255 87.594 204.552 87.7673 204.935C87.944 205.315 88.0323 205.767 88.0323 206.29V206.63H84.3273ZM84.3323 206.005H87.1423C87.1423 205.708 87.0923 205.442 86.9923 205.205C86.8923 204.965 86.739 204.777 86.5323 204.64C86.329 204.5 86.0723 204.43 85.7623 204.43C85.439 204.43 85.1707 204.508 84.9573 204.665C84.7473 204.818 84.589 205.017 84.4823 205.26C84.379 205.5 84.329 205.748 84.3323 206.005ZM89.3021 209V203.83H90.1971V204.58C90.2804 204.437 90.3954 204.302 90.5421 204.175C90.6921 204.048 90.8721 203.947 91.0821 203.87C91.2954 203.793 91.5404 203.755 91.8171 203.755C92.1438 203.755 92.4438 203.82 92.7171 203.95C92.9938 204.08 93.2138 204.283 93.3771 204.56C93.5438 204.833 93.6271 205.187 93.6271 205.62V209H92.7021V205.71C92.7021 205.307 92.5954 205.008 92.3821 204.815C92.1721 204.618 91.8988 204.52 91.5621 204.52C91.3288 204.52 91.1104 204.558 90.9071 204.635C90.7038 204.708 90.5388 204.822 90.4121 204.975C90.2854 205.125 90.2221 205.315 90.2221 205.545V209H89.3021ZM97.4561 204.505H96.2911V207.72C96.2911 207.903 96.3094 208.038 96.3461 208.125C96.3861 208.208 96.4511 208.262 96.5411 208.285C96.6344 208.308 96.7611 208.32 96.9211 208.32H97.4861V208.94C97.4228 208.963 97.3261 208.983 97.1961 209C97.0694 209.017 96.9111 209.025 96.7211 209.025C96.3644 209.025 96.0878 208.977 95.8911 208.88C95.6944 208.783 95.5561 208.64 95.4761 208.45C95.3994 208.26 95.3611 208.027 95.3611 207.75V204.505H94.5211V203.83H95.3861L95.6111 202.325H96.2911V203.825H97.4561V204.505ZM101.089 209V201.57H101.989V204.59C102.076 204.447 102.193 204.313 102.339 204.19C102.486 204.063 102.664 203.962 102.874 203.885C103.084 203.805 103.328 203.765 103.604 203.765C103.941 203.765 104.246 203.828 104.519 203.955C104.793 204.078 105.009 204.255 105.169 204.485C105.329 204.715 105.409 204.988 105.409 205.305V209H104.484V205.49C104.484 205.18 104.378 204.942 104.164 204.775C103.954 204.605 103.679 204.52 103.339 204.52C103.109 204.52 102.893 204.558 102.689 204.635C102.486 204.708 102.321 204.822 102.194 204.975C102.071 205.125 102.009 205.317 102.009 205.55V209H101.089ZM108.261 209.1C107.928 209.1 107.633 209.042 107.376 208.925C107.12 208.805 106.918 208.633 106.771 208.41C106.628 208.187 106.556 207.917 106.556 207.6C106.556 207.027 106.756 206.6 107.156 206.32C107.556 206.04 108.198 205.89 109.081 205.87L110.006 205.845V205.44C110.006 205.123 109.911 204.873 109.721 204.69C109.531 204.503 109.236 204.41 108.836 204.41C108.54 204.413 108.278 204.483 108.051 204.62C107.828 204.757 107.683 204.98 107.616 205.29H106.801C106.821 204.953 106.916 204.67 107.086 204.44C107.256 204.207 107.493 204.03 107.796 203.91C108.103 203.79 108.465 203.73 108.881 203.73C109.331 203.73 109.705 203.793 110.001 203.92C110.301 204.047 110.525 204.233 110.671 204.48C110.821 204.727 110.896 205.03 110.896 205.39V209H110.106L110.041 208.03C109.841 208.433 109.586 208.713 109.276 208.87C108.97 209.023 108.631 209.1 108.261 209.1ZM108.541 208.435C108.715 208.435 108.886 208.403 109.056 208.34C109.23 208.277 109.388 208.192 109.531 208.085C109.675 207.975 109.788 207.853 109.871 207.72C109.958 207.583 110.003 207.443 110.006 207.3V206.415L109.236 206.43C108.843 206.437 108.513 206.477 108.246 206.55C107.983 206.623 107.785 206.738 107.651 206.895C107.521 207.052 107.456 207.257 107.456 207.51C107.456 207.8 107.556 208.027 107.756 208.19C107.96 208.353 108.221 208.435 108.541 208.435ZM114.223 209.1C113.863 209.1 113.528 209.045 113.218 208.935C112.911 208.822 112.656 208.647 112.453 208.41C112.25 208.17 112.121 207.865 112.068 207.495H112.908C112.955 207.698 113.038 207.868 113.158 208.005C113.281 208.138 113.435 208.24 113.618 208.31C113.801 208.377 114.001 208.41 114.218 208.41C114.565 208.41 114.845 208.345 115.058 208.215C115.271 208.085 115.378 207.885 115.378 207.615C115.378 207.425 115.321 207.273 115.208 207.16C115.098 207.043 114.926 206.958 114.693 206.905L113.623 206.64C113.206 206.54 112.873 206.383 112.623 206.17C112.373 205.957 112.248 205.658 112.248 205.275C112.245 204.972 112.316 204.705 112.463 204.475C112.61 204.245 112.83 204.063 113.123 203.93C113.416 203.797 113.781 203.73 114.218 203.73C114.778 203.73 115.23 203.857 115.573 204.11C115.92 204.36 116.1 204.728 116.113 205.215H115.298C115.265 204.968 115.153 204.773 114.963 204.63C114.776 204.483 114.525 204.41 114.208 204.41C113.878 204.41 113.61 204.477 113.403 204.61C113.196 204.74 113.093 204.943 113.093 205.22C113.093 205.403 113.166 205.548 113.313 205.655C113.46 205.758 113.676 205.845 113.963 205.915L114.998 206.175C115.238 206.238 115.435 206.322 115.588 206.425C115.745 206.528 115.868 206.643 115.958 206.77C116.051 206.897 116.116 207.03 116.153 207.17C116.193 207.307 116.213 207.438 116.213 207.565C116.213 207.882 116.133 208.155 115.973 208.385C115.816 208.612 115.59 208.788 115.293 208.915C115 209.038 114.643 209.1 114.223 209.1ZM122.326 209.1C122.023 209.1 121.766 209.06 121.556 208.98C121.349 208.9 121.179 208.798 121.046 208.675C120.913 208.548 120.809 208.42 120.736 208.29C120.663 208.157 120.609 208.04 120.576 207.94L120.476 209H119.771V201.57H120.701V204.65C120.744 204.563 120.809 204.468 120.896 204.365C120.986 204.262 121.101 204.162 121.241 204.065C121.381 203.968 121.546 203.888 121.736 203.825C121.929 203.762 122.149 203.73 122.396 203.73C123.043 203.73 123.556 203.955 123.936 204.405C124.319 204.855 124.511 205.518 124.511 206.395C124.511 206.938 124.429 207.413 124.266 207.82C124.103 208.223 123.859 208.538 123.536 208.765C123.213 208.988 122.809 209.1 122.326 209.1ZM122.161 208.39C122.581 208.39 122.923 208.228 123.186 207.905C123.449 207.578 123.581 207.06 123.581 206.35C123.581 205.747 123.458 205.28 123.211 204.95C122.968 204.617 122.611 204.45 122.141 204.45C121.798 204.45 121.521 204.525 121.311 204.675C121.104 204.822 120.951 205.037 120.851 205.32C120.754 205.603 120.704 205.947 120.701 206.35C120.701 207.073 120.813 207.595 121.036 207.915C121.263 208.232 121.638 208.39 122.161 208.39ZM126.378 206.63C126.378 206.957 126.431 207.253 126.538 207.52C126.648 207.783 126.813 207.993 127.033 208.15C127.256 208.307 127.535 208.385 127.868 208.385C128.198 208.385 128.481 208.308 128.718 208.155C128.958 208.002 129.111 207.78 129.178 207.49H130.053C129.99 207.84 129.85 208.135 129.633 208.375C129.416 208.615 129.155 208.797 128.848 208.92C128.541 209.04 128.221 209.1 127.888 209.1C127.405 209.1 126.98 208.995 126.613 208.785C126.246 208.575 125.96 208.273 125.753 207.88C125.546 207.487 125.443 207.015 125.443 206.465C125.443 205.922 125.536 205.445 125.723 205.035C125.91 204.625 126.18 204.305 126.533 204.075C126.89 203.845 127.318 203.73 127.818 203.73C128.305 203.73 128.716 203.835 129.053 204.045C129.39 204.255 129.645 204.552 129.818 204.935C129.995 205.315 130.083 205.767 130.083 206.29V206.63H126.378ZM126.383 206.005H129.193C129.193 205.708 129.143 205.442 129.043 205.205C128.943 204.965 128.79 204.777 128.583 204.64C128.38 204.5 128.123 204.43 127.813 204.43C127.49 204.43 127.221 204.508 127.008 204.665C126.798 204.818 126.64 205.017 126.533 205.26C126.43 205.5 126.38 205.748 126.383 206.005ZM132.013 206.63C132.013 206.957 132.066 207.253 132.173 207.52C132.283 207.783 132.448 207.993 132.668 208.15C132.891 208.307 133.17 208.385 133.503 208.385C133.833 208.385 134.116 208.308 134.353 208.155C134.593 208.002 134.746 207.78 134.813 207.49H135.688C135.625 207.84 135.485 208.135 135.268 208.375C135.051 208.615 134.79 208.797 134.483 208.92C134.176 209.04 133.856 209.1 133.523 209.1C133.04 209.1 132.615 208.995 132.248 208.785C131.881 208.575 131.595 208.273 131.388 207.88C131.181 207.487 131.078 207.015 131.078 206.465C131.078 205.922 131.171 205.445 131.358 205.035C131.545 204.625 131.815 204.305 132.168 204.075C132.525 203.845 132.953 203.73 133.453 203.73C133.94 203.73 134.351 203.835 134.688 204.045C135.025 204.255 135.28 204.552 135.453 204.935C135.63 205.315 135.718 205.767 135.718 206.29V206.63H132.013ZM132.018 206.005H134.828C134.828 205.708 134.778 205.442 134.678 205.205C134.578 204.965 134.425 204.777 134.218 204.64C134.015 204.5 133.758 204.43 133.448 204.43C133.125 204.43 132.856 204.508 132.643 204.665C132.433 204.818 132.275 205.017 132.168 205.26C132.065 205.5 132.015 205.748 132.018 206.005ZM136.988 209V203.83H137.883V204.58C137.966 204.437 138.081 204.302 138.228 204.175C138.378 204.048 138.558 203.947 138.768 203.87C138.981 203.793 139.226 203.755 139.503 203.755C139.829 203.755 140.129 203.82 140.403 203.95C140.679 204.08 140.899 204.283 141.063 204.56C141.229 204.833 141.313 205.187 141.313 205.62V209H140.388V205.71C140.388 205.307 140.281 205.008 140.068 204.815C139.858 204.618 139.584 204.52 139.248 204.52C139.014 204.52 138.796 204.558 138.593 204.635C138.389 204.708 138.224 204.822 138.098 204.975C137.971 205.125 137.908 205.315 137.908 205.545V209H136.988ZM145.064 210.61V203.83H145.984L145.994 204.73C146.054 204.623 146.13 204.512 146.224 204.395C146.32 204.278 146.437 204.17 146.574 204.07C146.714 203.97 146.875 203.888 147.059 203.825C147.245 203.762 147.457 203.73 147.694 203.73C148.107 203.73 148.47 203.825 148.784 204.015C149.1 204.202 149.347 204.488 149.524 204.875C149.7 205.262 149.789 205.752 149.789 206.345C149.789 206.938 149.702 207.44 149.529 207.85C149.359 208.257 149.112 208.567 148.789 208.78C148.465 208.993 148.075 209.1 147.619 209.1C147.389 209.1 147.184 209.067 147.004 209C146.827 208.937 146.672 208.853 146.539 208.75C146.409 208.643 146.299 208.53 146.209 208.41C146.122 208.29 146.05 208.175 145.994 208.065V210.61H145.064ZM147.444 208.38C147.87 208.38 148.219 208.218 148.489 207.895C148.759 207.568 148.894 207.062 148.894 206.375C148.894 205.785 148.77 205.317 148.524 204.97C148.277 204.623 147.917 204.45 147.444 204.45C146.964 204.45 146.6 204.628 146.354 204.985C146.107 205.338 145.984 205.802 145.984 206.375C145.984 206.745 146.039 207.082 146.149 207.385C146.259 207.688 146.422 207.93 146.639 208.11C146.855 208.29 147.124 208.38 147.444 208.38ZM151.001 209V203.83H151.881V204.825C151.968 204.578 152.09 204.375 152.246 204.215C152.403 204.052 152.581 203.93 152.781 203.85C152.985 203.77 153.195 203.73 153.411 203.73C153.488 203.73 153.563 203.735 153.636 203.745C153.71 203.755 153.766 203.772 153.806 203.795V204.69C153.756 204.667 153.691 204.652 153.611 204.645C153.535 204.635 153.47 204.63 153.416 204.63C153.21 204.617 153.016 204.63 152.836 204.67C152.656 204.707 152.498 204.772 152.361 204.865C152.225 204.958 152.116 205.082 152.036 205.235C151.96 205.385 151.921 205.568 151.921 205.785V209H151.001ZM156.816 209.1C156.339 209.1 155.923 208.998 155.566 208.795C155.209 208.588 154.933 208.287 154.736 207.89C154.539 207.493 154.441 207.008 154.441 206.435C154.441 205.895 154.533 205.422 154.716 205.015C154.899 204.608 155.168 204.293 155.521 204.07C155.878 203.843 156.309 203.73 156.816 203.73C157.293 203.73 157.706 203.835 158.056 204.045C158.409 204.252 158.683 204.557 158.876 204.96C159.069 205.363 159.166 205.855 159.166 206.435C159.166 206.962 159.076 207.425 158.896 207.825C158.719 208.225 158.456 208.538 158.106 208.765C157.759 208.988 157.329 209.1 156.816 209.1ZM156.816 208.37C157.126 208.37 157.388 208.292 157.601 208.135C157.814 207.978 157.976 207.753 158.086 207.46C158.196 207.167 158.251 206.818 158.251 206.415C158.251 206.045 158.203 205.713 158.106 205.42C158.009 205.123 157.854 204.888 157.641 204.715C157.431 204.542 157.156 204.455 156.816 204.455C156.503 204.455 156.238 204.533 156.021 204.69C155.804 204.843 155.639 205.067 155.526 205.36C155.416 205.653 155.361 206.005 155.361 206.415C155.361 206.778 155.411 207.108 155.511 207.405C155.611 207.702 155.768 207.937 155.981 208.11C156.194 208.283 156.473 208.37 156.816 208.37ZM162.436 203.73C162.806 203.73 163.14 203.802 163.436 203.945C163.733 204.085 163.975 204.285 164.161 204.545C164.351 204.805 164.47 205.112 164.516 205.465H163.696C163.666 205.285 163.596 205.12 163.486 204.97C163.38 204.82 163.238 204.7 163.061 204.61C162.885 204.52 162.678 204.475 162.441 204.475C161.998 204.475 161.638 204.635 161.361 204.955C161.085 205.275 160.946 205.765 160.946 206.425C160.946 207.022 161.073 207.5 161.326 207.86C161.583 208.217 161.96 208.395 162.456 208.395C162.693 208.395 162.898 208.35 163.071 208.26C163.248 208.167 163.39 208.045 163.496 207.895C163.603 207.742 163.671 207.578 163.701 207.405H164.506C164.463 207.752 164.346 208.052 164.156 208.305C163.966 208.558 163.723 208.755 163.426 208.895C163.133 209.032 162.803 209.1 162.436 209.1C161.973 209.1 161.561 208.998 161.201 208.795C160.845 208.592 160.565 208.292 160.361 207.895C160.158 207.498 160.056 207.012 160.056 206.435C160.056 205.895 160.148 205.423 160.331 205.02C160.518 204.613 160.788 204.297 161.141 204.07C161.498 203.843 161.93 203.73 162.436 203.73ZM166.427 206.63C166.427 206.957 166.48 207.253 166.587 207.52C166.697 207.783 166.862 207.993 167.082 208.15C167.305 208.307 167.584 208.385 167.917 208.385C168.247 208.385 168.53 208.308 168.767 208.155C169.007 208.002 169.16 207.78 169.227 207.49H170.102C170.039 207.84 169.899 208.135 169.682 208.375C169.465 208.615 169.204 208.797 168.897 208.92C168.59 209.04 168.27 209.1 167.937 209.1C167.454 209.1 167.029 208.995 166.662 208.785C166.295 208.575 166.009 208.273 165.802 207.88C165.595 207.487 165.492 207.015 165.492 206.465C165.492 205.922 165.585 205.445 165.772 205.035C165.959 204.625 166.229 204.305 166.582 204.075C166.939 203.845 167.367 203.73 167.867 203.73C168.354 203.73 168.765 203.835 169.102 204.045C169.439 204.255 169.694 204.552 169.867 204.935C170.044 205.315 170.132 205.767 170.132 206.29V206.63H166.427ZM166.432 206.005H169.242C169.242 205.708 169.192 205.442 169.092 205.205C168.992 204.965 168.839 204.777 168.632 204.64C168.429 204.5 168.172 204.43 167.862 204.43C167.539 204.43 167.27 204.508 167.057 204.665C166.847 204.818 166.689 205.017 166.582 205.26C166.479 205.5 166.429 205.748 166.432 206.005ZM173.198 209.1C172.838 209.1 172.503 209.045 172.193 208.935C171.886 208.822 171.631 208.647 171.428 208.41C171.224 208.17 171.096 207.865 171.043 207.495H171.883C171.929 207.698 172.013 207.868 172.133 208.005C172.256 208.138 172.409 208.24 172.593 208.31C172.776 208.377 172.976 208.41 173.193 208.41C173.539 208.41 173.819 208.345 174.033 208.215C174.246 208.085 174.353 207.885 174.353 207.615C174.353 207.425 174.296 207.273 174.183 207.16C174.073 207.043 173.901 206.958 173.668 206.905L172.598 206.64C172.181 206.54 171.848 206.383 171.598 206.17C171.348 205.957 171.223 205.658 171.223 205.275C171.219 204.972 171.291 204.705 171.438 204.475C171.584 204.245 171.804 204.063 172.098 203.93C172.391 203.797 172.756 203.73 173.193 203.73C173.753 203.73 174.204 203.857 174.548 204.11C174.894 204.36 175.074 204.728 175.088 205.215H174.273C174.239 204.968 174.128 204.773 173.938 204.63C173.751 204.483 173.499 204.41 173.183 204.41C172.853 204.41 172.584 204.477 172.378 204.61C172.171 204.74 172.068 204.943 172.068 205.22C172.068 205.403 172.141 205.548 172.288 205.655C172.434 205.758 172.651 205.845 172.938 205.915L173.973 206.175C174.213 206.238 174.409 206.322 174.563 206.425C174.719 206.528 174.843 206.643 174.933 206.77C175.026 206.897 175.091 207.03 175.128 207.17C175.168 207.307 175.188 207.438 175.188 207.565C175.188 207.882 175.108 208.155 174.948 208.385C174.791 208.612 174.564 208.788 174.268 208.915C173.974 209.038 173.618 209.1 173.198 209.1ZM178.227 209.1C177.867 209.1 177.532 209.045 177.222 208.935C176.915 208.822 176.66 208.647 176.457 208.41C176.254 208.17 176.125 207.865 176.072 207.495H176.912C176.959 207.698 177.042 207.868 177.162 208.005C177.285 208.138 177.439 208.24 177.622 208.31C177.805 208.377 178.005 208.41 178.222 208.41C178.569 208.41 178.849 208.345 179.062 208.215C179.275 208.085 179.382 207.885 179.382 207.615C179.382 207.425 179.325 207.273 179.212 207.16C179.102 207.043 178.93 206.958 178.697 206.905L177.627 206.64C177.21 206.54 176.877 206.383 176.627 206.17C176.377 205.957 176.252 205.658 176.252 205.275C176.249 204.972 176.32 204.705 176.467 204.475C176.614 204.245 176.834 204.063 177.127 203.93C177.42 203.797 177.785 203.73 178.222 203.73C178.782 203.73 179.234 203.857 179.577 204.11C179.924 204.36 180.104 204.728 180.117 205.215H179.302C179.269 204.968 179.157 204.773 178.967 204.63C178.78 204.483 178.529 204.41 178.212 204.41C177.882 204.41 177.614 204.477 177.407 204.61C177.2 204.74 177.097 204.943 177.097 205.22C177.097 205.403 177.17 205.548 177.317 205.655C177.464 205.758 177.68 205.845 177.967 205.915L179.002 206.175C179.242 206.238 179.439 206.322 179.592 206.425C179.749 206.528 179.872 206.643 179.962 206.77C180.055 206.897 180.12 207.03 180.157 207.17C180.197 207.307 180.217 207.438 180.217 207.565C180.217 207.882 180.137 208.155 179.977 208.385C179.82 208.612 179.594 208.788 179.297 208.915C179.004 209.038 178.647 209.1 178.227 209.1ZM182.169 206.63C182.169 206.957 182.222 207.253 182.329 207.52C182.439 207.783 182.604 207.993 182.824 208.15C183.047 208.307 183.326 208.385 183.659 208.385C183.989 208.385 184.272 208.308 184.509 208.155C184.749 208.002 184.902 207.78 184.969 207.49H185.844C185.781 207.84 185.641 208.135 185.424 208.375C185.207 208.615 184.946 208.797 184.639 208.92C184.332 209.04 184.012 209.1 183.679 209.1C183.196 209.1 182.771 208.995 182.404 208.785C182.037 208.575 181.751 208.273 181.544 207.88C181.337 207.487 181.234 207.015 181.234 206.465C181.234 205.922 181.327 205.445 181.514 205.035C181.701 204.625 181.971 204.305 182.324 204.075C182.681 203.845 183.109 203.73 183.609 203.73C184.096 203.73 184.507 203.835 184.844 204.045C185.181 204.255 185.436 204.552 185.609 204.935C185.786 205.315 185.874 205.767 185.874 206.29V206.63H182.169ZM182.174 206.005H184.984C184.984 205.708 184.934 205.442 184.834 205.205C184.734 204.965 184.581 204.777 184.374 204.64C184.171 204.5 183.914 204.43 183.604 204.43C183.281 204.43 183.012 204.508 182.799 204.665C182.589 204.818 182.431 205.017 182.324 205.26C182.221 205.5 182.171 205.748 182.174 206.005ZM189.009 209.1C188.339 209.1 187.807 208.87 187.414 208.41C187.021 207.95 186.824 207.278 186.824 206.395C186.824 205.858 186.902 205.39 187.059 204.99C187.219 204.59 187.456 204.28 187.769 204.06C188.082 203.84 188.472 203.73 188.939 203.73C189.186 203.73 189.404 203.762 189.594 203.825C189.787 203.888 189.954 203.968 190.094 204.065C190.234 204.162 190.347 204.262 190.434 204.365C190.524 204.468 190.591 204.563 190.634 204.65V201.57H191.564V209H190.859L190.759 207.94C190.726 208.04 190.672 208.157 190.599 208.29C190.526 208.42 190.422 208.548 190.289 208.675C190.156 208.798 189.984 208.9 189.774 208.98C189.567 209.06 189.312 209.1 189.009 209.1ZM189.174 208.39C189.697 208.39 190.071 208.232 190.294 207.915C190.521 207.595 190.634 207.073 190.634 206.35C190.631 205.947 190.579 205.603 190.479 205.32C190.382 205.037 190.229 204.822 190.019 204.675C189.812 204.525 189.537 204.45 189.194 204.45C188.767 204.45 188.421 204.602 188.154 204.905C187.887 205.208 187.754 205.69 187.754 206.35C187.754 206.997 187.874 207.498 188.114 207.855C188.357 208.212 188.711 208.39 189.174 208.39ZM192.876 209V207.82H193.976V209H192.876ZM197.048 202.62V201.77H202.518V202.62H200.313V209H199.383V202.62H197.048ZM203.521 209V201.57H204.421V204.59C204.508 204.447 204.624 204.313 204.771 204.19C204.918 204.063 205.096 203.962 205.306 203.885C205.516 203.805 205.759 203.765 206.036 203.765C206.373 203.765 206.678 203.828 206.951 203.955C207.224 204.078 207.441 204.255 207.601 204.485C207.761 204.715 207.841 204.988 207.841 205.305V209H206.916V205.49C206.916 205.18 206.809 204.942 206.596 204.775C206.386 204.605 206.111 204.52 205.771 204.52C205.541 204.52 205.324 204.558 205.121 204.635C204.918 204.708 204.753 204.822 204.626 204.975C204.503 205.125 204.441 205.317 204.441 205.55V209H203.521ZM209.943 206.63C209.943 206.957 209.996 207.253 210.103 207.52C210.213 207.783 210.378 207.993 210.598 208.15C210.821 208.307 211.099 208.385 211.433 208.385C211.763 208.385 212.046 208.308 212.283 208.155C212.523 208.002 212.676 207.78 212.743 207.49H213.618C213.554 207.84 213.414 208.135 213.198 208.375C212.981 208.615 212.719 208.797 212.413 208.92C212.106 209.04 211.786 209.1 211.453 209.1C210.969 209.1 210.544 208.995 210.178 208.785C209.811 208.575 209.524 208.273 209.318 207.88C209.111 207.487 209.008 207.015 209.008 206.465C209.008 205.922 209.101 205.445 209.288 205.035C209.474 204.625 209.744 204.305 210.098 204.075C210.454 203.845 210.883 203.73 211.383 203.73C211.869 203.73 212.281 203.835 212.618 204.045C212.954 204.255 213.209 204.552 213.383 204.935C213.559 205.315 213.648 205.767 213.648 206.29V206.63H209.943ZM209.948 206.005H212.758C212.758 205.708 212.708 205.442 212.608 205.205C212.508 204.965 212.354 204.777 212.148 204.64C211.944 204.5 211.688 204.43 211.378 204.43C211.054 204.43 210.786 204.508 210.573 204.665C210.363 204.818 210.204 205.017 210.098 205.26C209.994 205.5 209.944 205.748 209.948 206.005ZM41.46 218.505H40.295V221.72C40.295 221.903 40.3133 222.038 40.35 222.125C40.39 222.208 40.455 222.262 40.545 222.285C40.6383 222.308 40.765 222.32 40.925 222.32H41.49V222.94C41.4267 222.963 41.33 222.983 41.2 223C41.0733 223.017 40.915 223.025 40.725 223.025C40.3683 223.025 40.0917 222.977 39.895 222.88C39.6983 222.783 39.56 222.64 39.48 222.45C39.4033 222.26 39.365 222.027 39.365 221.75V218.505H38.525V217.83H39.39L39.615 216.325H40.295V217.825H41.46V218.505ZM44.7067 223.1C44.2301 223.1 43.8134 222.998 43.4567 222.795C43.1001 222.588 42.8234 222.287 42.6267 221.89C42.4301 221.493 42.3317 221.008 42.3317 220.435C42.3317 219.895 42.4234 219.422 42.6067 219.015C42.7901 218.608 43.0584 218.293 43.4117 218.07C43.7684 217.843 44.2001 217.73 44.7067 217.73C45.1834 217.73 45.5967 217.835 45.9467 218.045C46.3001 218.252 46.5734 218.557 46.7667 218.96C46.9601 219.363 47.0567 219.855 47.0567 220.435C47.0567 220.962 46.9667 221.425 46.7867 221.825C46.6101 222.225 46.3467 222.538 45.9967 222.765C45.6501 222.988 45.2201 223.1 44.7067 223.1ZM44.7067 222.37C45.0167 222.37 45.2784 222.292 45.4917 222.135C45.7051 221.978 45.8667 221.753 45.9767 221.46C46.0867 221.167 46.1417 220.818 46.1417 220.415C46.1417 220.045 46.0934 219.713 45.9967 219.42C45.9001 219.123 45.7451 218.888 45.5317 218.715C45.3217 218.542 45.0467 218.455 44.7067 218.455C44.3934 218.455 44.1284 218.533 43.9117 218.69C43.6951 218.843 43.5301 219.067 43.4167 219.36C43.3067 219.653 43.2517 220.005 43.2517 220.415C43.2517 220.778 43.3017 221.108 43.4017 221.405C43.5017 221.702 43.6584 221.937 43.8717 222.11C44.0851 222.283 44.3634 222.37 44.7067 222.37ZM50.7276 218.505H49.5626V221.72C49.5626 221.903 49.5809 222.038 49.6176 222.125C49.6576 222.208 49.7226 222.262 49.8126 222.285C49.9059 222.308 50.0326 222.32 50.1926 222.32H50.7576V222.94C50.6942 222.963 50.5976 222.983 50.4676 223C50.3409 223.017 50.1826 223.025 49.9926 223.025C49.6359 223.025 49.3592 222.977 49.1626 222.88C48.9659 222.783 48.8276 222.64 48.7476 222.45C48.6709 222.26 48.6326 222.027 48.6326 221.75V218.505H47.7926V217.83H48.6576L48.8826 216.325H49.5626V217.825H50.7276V218.505ZM53.447 223.1C53.1136 223.1 52.8186 223.042 52.562 222.925C52.3053 222.805 52.1036 222.633 51.957 222.41C51.8136 222.187 51.742 221.917 51.742 221.6C51.742 221.027 51.942 220.6 52.342 220.32C52.742 220.04 53.3836 219.89 54.267 219.87L55.192 219.845V219.44C55.192 219.123 55.097 218.873 54.907 218.69C54.717 218.503 54.422 218.41 54.022 218.41C53.7253 218.413 53.4636 218.483 53.237 218.62C53.0136 218.757 52.8686 218.98 52.802 219.29H51.987C52.007 218.953 52.102 218.67 52.272 218.44C52.442 218.207 52.6786 218.03 52.982 217.91C53.2886 217.79 53.6503 217.73 54.067 217.73C54.517 217.73 54.8903 217.793 55.187 217.92C55.487 218.047 55.7103 218.233 55.857 218.48C56.007 218.727 56.082 219.03 56.082 219.39V223H55.292L55.227 222.03C55.027 222.433 54.772 222.713 54.462 222.87C54.1553 223.023 53.817 223.1 53.447 223.1ZM53.727 222.435C53.9003 222.435 54.072 222.403 54.242 222.34C54.4153 222.277 54.5736 222.192 54.717 222.085C54.8603 221.975 54.9736 221.853 55.057 221.72C55.1436 221.583 55.1886 221.443 55.192 221.3V220.415L54.422 220.43C54.0286 220.437 53.6986 220.477 53.432 220.55C53.1686 220.623 52.9703 220.738 52.837 220.895C52.707 221.052 52.642 221.257 52.642 221.51C52.642 221.8 52.742 222.027 52.942 222.19C53.1453 222.353 53.407 222.435 53.727 222.435ZM58.9665 223.065C58.6865 223.065 58.4598 223.027 58.2865 222.95C58.1165 222.873 57.9848 222.77 57.8915 222.64C57.8015 222.51 57.7398 222.362 57.7065 222.195C57.6765 222.025 57.6615 221.85 57.6615 221.67V215.57H58.5715V221.58C58.5715 221.84 58.6215 222.035 58.7215 222.165C58.8248 222.295 58.9682 222.367 59.1515 222.38L59.4315 222.385V222.985C59.3548 223.008 59.2748 223.027 59.1915 223.04C59.1082 223.057 59.0332 223.065 58.9665 223.065ZM64.3747 223.1C64.0414 223.1 63.7464 223.042 63.4897 222.925C63.233 222.805 63.0314 222.633 62.8847 222.41C62.7414 222.187 62.6697 221.917 62.6697 221.6C62.6697 221.027 62.8697 220.6 63.2697 220.32C63.6697 220.04 64.3114 219.89 65.1947 219.87L66.1197 219.845V219.44C66.1197 219.123 66.0247 218.873 65.8347 218.69C65.6447 218.503 65.3497 218.41 64.9497 218.41C64.653 218.413 64.3914 218.483 64.1647 218.62C63.9414 218.757 63.7964 218.98 63.7297 219.29H62.9147C62.9347 218.953 63.0297 218.67 63.1997 218.44C63.3697 218.207 63.6064 218.03 63.9097 217.91C64.2164 217.79 64.578 217.73 64.9947 217.73C65.4447 217.73 65.818 217.793 66.1147 217.92C66.4147 218.047 66.638 218.233 66.7847 218.48C66.9347 218.727 67.0097 219.03 67.0097 219.39V223H66.2197L66.1547 222.03C65.9547 222.433 65.6997 222.713 65.3897 222.87C65.083 223.023 64.7447 223.1 64.3747 223.1ZM64.6547 222.435C64.828 222.435 64.9997 222.403 65.1697 222.34C65.343 222.277 65.5014 222.192 65.6447 222.085C65.788 221.975 65.9014 221.853 65.9847 221.72C66.0714 221.583 66.1164 221.443 66.1197 221.3V220.415L65.3497 220.43C64.9564 220.437 64.6264 220.477 64.3597 220.55C64.0964 220.623 63.898 220.738 63.7647 220.895C63.6347 221.052 63.5697 221.257 63.5697 221.51C63.5697 221.8 63.6697 222.027 63.8697 222.19C64.073 222.353 64.3347 222.435 64.6547 222.435ZM68.5892 223V217.83H69.4792V218.58C69.6226 218.353 69.8192 218.155 70.0692 217.985C70.3192 217.815 70.6442 217.73 71.0442 217.73C71.2309 217.73 71.4209 217.762 71.6142 217.825C71.8109 217.888 71.9909 217.983 72.1542 218.11C72.3176 218.237 72.4442 218.392 72.5342 218.575C72.6942 218.322 72.9109 218.118 73.1842 217.965C73.4576 217.808 73.7659 217.73 74.1092 217.73C74.2892 217.73 74.4776 217.758 74.6742 217.815C74.8709 217.868 75.0526 217.965 75.2192 218.105C75.3892 218.242 75.5276 218.433 75.6342 218.68C75.7409 218.923 75.7942 219.237 75.7942 219.62V223H74.8642V219.71C74.8642 219.397 74.8142 219.155 74.7142 218.985C74.6142 218.812 74.4826 218.69 74.3192 218.62C74.1592 218.55 73.9876 218.515 73.8042 218.515C73.6442 218.515 73.4742 218.547 73.2942 218.61C73.1142 218.673 72.9609 218.78 72.8342 218.93C72.7076 219.08 72.6442 219.285 72.6442 219.545V223H71.7242V219.44C71.7242 219.237 71.6692 219.067 71.5592 218.93C71.4526 218.793 71.3176 218.69 71.1542 218.62C70.9942 218.55 70.8342 218.515 70.6742 218.515C70.4976 218.515 70.3192 218.55 70.1392 218.62C69.9626 218.69 69.8126 218.802 69.6892 218.955C69.5692 219.105 69.5092 219.302 69.5092 219.545V223H68.5892ZM79.2966 223.1C78.8199 223.1 78.4032 222.998 78.0466 222.795C77.6899 222.588 77.4132 222.287 77.2166 221.89C77.0199 221.493 76.9216 221.008 76.9216 220.435C76.9216 219.895 77.0132 219.422 77.1966 219.015C77.3799 218.608 77.6482 218.293 78.0016 218.07C78.3582 217.843 78.7899 217.73 79.2966 217.73C79.7732 217.73 80.1866 217.835 80.5366 218.045C80.8899 218.252 81.1632 218.557 81.3566 218.96C81.5499 219.363 81.6466 219.855 81.6466 220.435C81.6466 220.962 81.5566 221.425 81.3766 221.825C81.1999 222.225 80.9366 222.538 80.5866 222.765C80.2399 222.988 79.8099 223.1 79.2966 223.1ZM79.2966 222.37C79.6066 222.37 79.8682 222.292 80.0816 222.135C80.2949 221.978 80.4566 221.753 80.5666 221.46C80.6766 221.167 80.7316 220.818 80.7316 220.415C80.7316 220.045 80.6832 219.713 80.5866 219.42C80.4899 219.123 80.3349 218.888 80.1216 218.715C79.9116 218.542 79.6366 218.455 79.2966 218.455C78.9832 218.455 78.7182 218.533 78.5016 218.69C78.2849 218.843 78.1199 219.067 78.0066 219.36C77.8966 219.653 77.8416 220.005 77.8416 220.415C77.8416 220.778 77.8916 221.108 77.9916 221.405C78.0916 221.702 78.2482 221.937 78.4616 222.11C78.6749 222.283 78.9532 222.37 79.2966 222.37ZM84.6689 223.1C84.3989 223.097 84.1439 223.058 83.9039 222.985C83.6672 222.908 83.4572 222.797 83.2739 222.65C83.0906 222.503 82.9456 222.322 82.8389 222.105C82.7356 221.885 82.6839 221.63 82.6839 221.34V217.83H83.6089V221.245C83.6089 221.582 83.7122 221.855 83.9189 222.065C84.1289 222.275 84.4439 222.38 84.8639 222.38C85.2439 222.38 85.5489 222.282 85.7789 222.085C86.0122 221.885 86.1289 221.588 86.1289 221.195V217.83H87.0489V223H86.3139L86.2189 222.01C86.1556 222.27 86.0472 222.48 85.8939 222.64C85.7439 222.8 85.5622 222.918 85.3489 222.995C85.1389 223.068 84.9122 223.103 84.6689 223.1ZM88.5599 223V217.83H89.4549V218.58C89.5383 218.437 89.6533 218.302 89.7999 218.175C89.9499 218.048 90.1299 217.947 90.3399 217.87C90.5533 217.793 90.7983 217.755 91.0749 217.755C91.4016 217.755 91.7016 217.82 91.9749 217.95C92.2516 218.08 92.4716 218.283 92.6349 218.56C92.8016 218.833 92.8849 219.187 92.8849 219.62V223H91.9599V219.71C91.9599 219.307 91.8533 219.008 91.6399 218.815C91.4299 218.618 91.1566 218.52 90.8199 218.52C90.5866 218.52 90.3683 218.558 90.1649 218.635C89.9616 218.708 89.7966 218.822 89.6699 218.975C89.5433 219.125 89.4799 219.315 89.4799 219.545V223H88.5599ZM96.7139 218.505H95.5489V221.72C95.5489 221.903 95.5672 222.038 95.6039 222.125C95.6439 222.208 95.7089 222.262 95.7989 222.285C95.8922 222.308 96.0189 222.32 96.1789 222.32H96.7439V222.94C96.6806 222.963 96.5839 222.983 96.4539 223C96.3272 223.017 96.1689 223.025 95.9789 223.025C95.6222 223.025 95.3456 222.977 95.1489 222.88C94.9522 222.783 94.8139 222.64 94.7339 222.45C94.6572 222.26 94.6189 222.027 94.6189 221.75V218.505H93.7789V217.83H94.6439L94.8689 216.325H95.5489V217.825H96.7139V218.505ZM102.085 223.1C101.415 223.1 100.883 222.87 100.49 222.41C100.097 221.95 99.9001 221.278 99.9001 220.395C99.9001 219.858 99.9784 219.39 100.135 218.99C100.295 218.59 100.532 218.28 100.845 218.06C101.158 217.84 101.548 217.73 102.015 217.73C102.262 217.73 102.48 217.762 102.67 217.825C102.863 217.888 103.03 217.968 103.17 218.065C103.31 218.162 103.423 218.262 103.51 218.365C103.6 218.468 103.667 218.563 103.71 218.65V215.57H104.64V223H103.935L103.835 221.94C103.802 222.04 103.748 222.157 103.675 222.29C103.602 222.42 103.498 222.548 103.365 222.675C103.232 222.798 103.06 222.9 102.85 222.98C102.643 223.06 102.388 223.1 102.085 223.1ZM102.25 222.39C102.773 222.39 103.147 222.232 103.37 221.915C103.597 221.595 103.71 221.073 103.71 220.35C103.707 219.947 103.655 219.603 103.555 219.32C103.458 219.037 103.305 218.822 103.095 218.675C102.888 218.525 102.613 218.45 102.27 218.45C101.843 218.45 101.497 218.602 101.23 218.905C100.963 219.208 100.83 219.69 100.83 220.35C100.83 220.997 100.95 221.498 101.19 221.855C101.433 222.212 101.787 222.39 102.25 222.39ZM106.827 220.63C106.827 220.957 106.881 221.253 106.987 221.52C107.097 221.783 107.262 221.993 107.482 222.15C107.706 222.307 107.984 222.385 108.317 222.385C108.647 222.385 108.931 222.308 109.167 222.155C109.407 222.002 109.561 221.78 109.627 221.49H110.502C110.439 221.84 110.299 222.135 110.082 222.375C109.866 222.615 109.604 222.797 109.297 222.92C108.991 223.04 108.671 223.1 108.337 223.1C107.854 223.1 107.429 222.995 107.062 222.785C106.696 222.575 106.409 222.273 106.202 221.88C105.996 221.487 105.892 221.015 105.892 220.465C105.892 219.922 105.986 219.445 106.172 219.035C106.359 218.625 106.629 218.305 106.982 218.075C107.339 217.845 107.767 217.73 108.267 217.73C108.754 217.73 109.166 217.835 109.502 218.045C109.839 218.255 110.094 218.552 110.267 218.935C110.444 219.315 110.532 219.767 110.532 220.29V220.63H106.827ZM106.832 220.005H109.642C109.642 219.708 109.592 219.442 109.492 219.205C109.392 218.965 109.239 218.777 109.032 218.64C108.829 218.5 108.572 218.43 108.262 218.43C107.939 218.43 107.671 218.508 107.457 218.665C107.247 218.818 107.089 219.017 106.982 219.26C106.879 219.5 106.829 219.748 106.832 220.005ZM113.667 223.1C112.997 223.1 112.465 222.87 112.072 222.41C111.679 221.95 111.482 221.278 111.482 220.395C111.482 219.858 111.56 219.39 111.717 218.99C111.877 218.59 112.114 218.28 112.427 218.06C112.74 217.84 113.13 217.73 113.597 217.73C113.844 217.73 114.062 217.762 114.252 217.825C114.445 217.888 114.612 217.968 114.752 218.065C114.892 218.162 115.005 218.262 115.092 218.365C115.182 218.468 115.249 218.563 115.292 218.65V215.57H116.222V223H115.517L115.417 221.94C115.384 222.04 115.33 222.157 115.257 222.29C115.184 222.42 115.08 222.548 114.947 222.675C114.814 222.798 114.642 222.9 114.432 222.98C114.225 223.06 113.97 223.1 113.667 223.1ZM113.832 222.39C114.355 222.39 114.729 222.232 114.952 221.915C115.179 221.595 115.292 221.073 115.292 220.35C115.289 219.947 115.237 219.603 115.137 219.32C115.04 219.037 114.887 218.822 114.677 218.675C114.47 218.525 114.195 218.45 113.852 218.45C113.425 218.45 113.079 218.602 112.812 218.905C112.545 219.208 112.412 219.69 112.412 220.35C112.412 220.997 112.532 221.498 112.772 221.855C113.015 222.212 113.369 222.39 113.832 222.39ZM119.649 223.1C119.379 223.097 119.124 223.058 118.884 222.985C118.648 222.908 118.438 222.797 118.254 222.65C118.071 222.503 117.926 222.322 117.819 222.105C117.716 221.885 117.664 221.63 117.664 221.34V217.83H118.589V221.245C118.589 221.582 118.693 221.855 118.899 222.065C119.109 222.275 119.424 222.38 119.844 222.38C120.224 222.38 120.529 222.282 120.759 222.085C120.993 221.885 121.109 221.588 121.109 221.195V217.83H122.029V223H121.294L121.199 222.01C121.136 222.27 121.028 222.48 120.874 222.64C120.724 222.8 120.543 222.918 120.329 222.995C120.119 223.068 119.893 223.103 119.649 223.1ZM125.532 217.73C125.902 217.73 126.235 217.802 126.532 217.945C126.829 218.085 127.07 218.285 127.257 218.545C127.447 218.805 127.565 219.112 127.612 219.465H126.792C126.762 219.285 126.692 219.12 126.582 218.97C126.475 218.82 126.334 218.7 126.157 218.61C125.98 218.52 125.774 218.475 125.537 218.475C125.094 218.475 124.734 218.635 124.457 218.955C124.18 219.275 124.042 219.765 124.042 220.425C124.042 221.022 124.169 221.5 124.422 221.86C124.679 222.217 125.055 222.395 125.552 222.395C125.789 222.395 125.994 222.35 126.167 222.26C126.344 222.167 126.485 222.045 126.592 221.895C126.699 221.742 126.767 221.578 126.797 221.405H127.602C127.559 221.752 127.442 222.052 127.252 222.305C127.062 222.558 126.819 222.755 126.522 222.895C126.229 223.032 125.899 223.1 125.532 223.1C125.069 223.1 124.657 222.998 124.297 222.795C123.94 222.592 123.66 222.292 123.457 221.895C123.254 221.498 123.152 221.012 123.152 220.435C123.152 219.895 123.244 219.423 123.427 219.02C123.614 218.613 123.884 218.297 124.237 218.07C124.594 217.843 125.025 217.73 125.532 217.73ZM131.323 218.505H130.158V221.72C130.158 221.903 130.177 222.038 130.213 222.125C130.253 222.208 130.318 222.262 130.408 222.285C130.502 222.308 130.628 222.32 130.788 222.32H131.353V222.94C131.29 222.963 131.193 222.983 131.063 223C130.937 223.017 130.778 223.025 130.588 223.025C130.232 223.025 129.955 222.977 129.758 222.88C129.562 222.783 129.423 222.64 129.343 222.45C129.267 222.26 129.228 222.027 129.228 221.75V218.505H128.388V217.83H129.253L129.478 216.325H130.158V217.825H131.323V218.505ZM133.175 220.63C133.175 220.957 133.228 221.253 133.335 221.52C133.445 221.783 133.61 221.993 133.83 222.15C134.053 222.307 134.332 222.385 134.665 222.385C134.995 222.385 135.278 222.308 135.515 222.155C135.755 222.002 135.908 221.78 135.975 221.49H136.85C136.787 221.84 136.647 222.135 136.43 222.375C136.213 222.615 135.952 222.797 135.645 222.92C135.338 223.04 135.018 223.1 134.685 223.1C134.202 223.1 133.777 222.995 133.41 222.785C133.043 222.575 132.757 222.273 132.55 221.88C132.343 221.487 132.24 221.015 132.24 220.465C132.24 219.922 132.333 219.445 132.52 219.035C132.707 218.625 132.977 218.305 133.33 218.075C133.687 217.845 134.115 217.73 134.615 217.73C135.102 217.73 135.513 217.835 135.85 218.045C136.187 218.255 136.442 218.552 136.615 218.935C136.792 219.315 136.88 219.767 136.88 220.29V220.63H133.175ZM133.18 220.005H135.99C135.99 219.708 135.94 219.442 135.84 219.205C135.74 218.965 135.587 218.777 135.38 218.64C135.177 218.5 134.92 218.43 134.61 218.43C134.287 218.43 134.018 218.508 133.805 218.665C133.595 218.818 133.437 219.017 133.33 219.26C133.227 219.5 133.177 219.748 133.18 220.005ZM140.015 223.1C139.345 223.1 138.813 222.87 138.42 222.41C138.026 221.95 137.83 221.278 137.83 220.395C137.83 219.858 137.908 219.39 138.065 218.99C138.225 218.59 138.461 218.28 138.775 218.06C139.088 217.84 139.478 217.73 139.945 217.73C140.191 217.73 140.41 217.762 140.6 217.825C140.793 217.888 140.96 217.968 141.1 218.065C141.24 218.162 141.353 218.262 141.44 218.365C141.53 218.468 141.596 218.563 141.64 218.65V215.57H142.57V223H141.865L141.765 221.94C141.731 222.04 141.678 222.157 141.605 222.29C141.531 222.42 141.428 222.548 141.295 222.675C141.161 222.798 140.99 222.9 140.78 222.98C140.573 223.06 140.318 223.1 140.015 223.1ZM140.18 222.39C140.703 222.39 141.076 222.232 141.3 221.915C141.526 221.595 141.64 221.073 141.64 220.35C141.636 219.947 141.585 219.603 141.485 219.32C141.388 219.037 141.235 218.822 141.025 218.675C140.818 218.525 140.543 218.45 140.2 218.45C139.773 218.45 139.426 218.602 139.16 218.905C138.893 219.208 138.76 219.69 138.76 220.35C138.76 220.997 138.88 221.498 139.12 221.855C139.363 222.212 139.716 222.39 140.18 222.39ZM149.322 217.83V218.505H148.067V223H147.137V218.505H146.047V217.83H147.137V217.03C147.137 216.62 147.242 216.308 147.452 216.095C147.662 215.878 147.975 215.77 148.392 215.77H149.367L149.372 216.425H148.597C148.387 216.425 148.243 216.482 148.167 216.595C148.09 216.708 148.052 216.88 148.052 217.11V217.83H149.322ZM150.464 223V217.83H151.344V218.825C151.431 218.578 151.553 218.375 151.709 218.215C151.866 218.052 152.044 217.93 152.244 217.85C152.448 217.77 152.658 217.73 152.874 217.73C152.951 217.73 153.026 217.735 153.099 217.745C153.173 217.755 153.229 217.772 153.269 217.795V218.69C153.219 218.667 153.154 218.652 153.074 218.645C152.998 218.635 152.933 218.63 152.879 218.63C152.673 218.617 152.479 218.63 152.299 218.67C152.119 218.707 151.961 218.772 151.824 218.865C151.688 218.958 151.579 219.082 151.499 219.235C151.423 219.385 151.384 219.568 151.384 219.785V223H150.464ZM156.279 223.1C155.802 223.1 155.386 222.998 155.029 222.795C154.672 222.588 154.396 222.287 154.199 221.89C154.002 221.493 153.904 221.008 153.904 220.435C153.904 219.895 153.996 219.422 154.179 219.015C154.362 218.608 154.631 218.293 154.984 218.07C155.341 217.843 155.772 217.73 156.279 217.73C156.756 217.73 157.169 217.835 157.519 218.045C157.872 218.252 158.146 218.557 158.339 218.96C158.532 219.363 158.629 219.855 158.629 220.435C158.629 220.962 158.539 221.425 158.359 221.825C158.182 222.225 157.919 222.538 157.569 222.765C157.222 222.988 156.792 223.1 156.279 223.1ZM156.279 222.37C156.589 222.37 156.851 222.292 157.064 222.135C157.277 221.978 157.439 221.753 157.549 221.46C157.659 221.167 157.714 220.818 157.714 220.415C157.714 220.045 157.666 219.713 157.569 219.42C157.472 219.123 157.317 218.888 157.104 218.715C156.894 218.542 156.619 218.455 156.279 218.455C155.966 218.455 155.701 218.533 155.484 218.69C155.267 218.843 155.102 219.067 154.989 219.36C154.879 219.653 154.824 220.005 154.824 220.415C154.824 220.778 154.874 221.108 154.974 221.405C155.074 221.702 155.231 221.937 155.444 222.11C155.657 222.283 155.936 222.37 156.279 222.37ZM159.839 223V217.83H160.729V218.58C160.873 218.353 161.069 218.155 161.319 217.985C161.569 217.815 161.894 217.73 162.294 217.73C162.481 217.73 162.671 217.762 162.864 217.825C163.061 217.888 163.241 217.983 163.404 218.11C163.568 218.237 163.694 218.392 163.784 218.575C163.944 218.322 164.161 218.118 164.434 217.965C164.708 217.808 165.016 217.73 165.359 217.73C165.539 217.73 165.728 217.758 165.924 217.815C166.121 217.868 166.303 217.965 166.469 218.105C166.639 218.242 166.778 218.433 166.884 218.68C166.991 218.923 167.044 219.237 167.044 219.62V223H166.114V219.71C166.114 219.397 166.064 219.155 165.964 218.985C165.864 218.812 165.733 218.69 165.569 218.62C165.409 218.55 165.238 218.515 165.054 218.515C164.894 218.515 164.724 218.547 164.544 218.61C164.364 218.673 164.211 218.78 164.084 218.93C163.958 219.08 163.894 219.285 163.894 219.545V223H162.974V219.44C162.974 219.237 162.919 219.067 162.809 218.93C162.703 218.793 162.568 218.69 162.404 218.62C162.244 218.55 162.084 218.515 161.924 218.515C161.748 218.515 161.569 218.55 161.389 218.62C161.213 218.69 161.063 218.802 160.939 218.955C160.819 219.105 160.759 219.302 160.759 219.545V223H159.839ZM171.238 224.65C170.935 224.65 170.726 224.628 170.613 224.585C170.5 224.542 170.443 224.52 170.443 224.52V223.92L170.968 223.93C171.161 223.937 171.321 223.923 171.448 223.89C171.575 223.857 171.676 223.812 171.753 223.755C171.83 223.698 171.888 223.635 171.928 223.565C171.971 223.495 172.006 223.428 172.033 223.365L172.213 222.875L170.193 217.83H171.128L172.653 221.82L174.168 217.83H175.073L172.893 223.39C172.76 223.717 172.61 223.972 172.443 224.155C172.28 224.338 172.096 224.467 171.893 224.54C171.693 224.613 171.475 224.65 171.238 224.65ZM177.929 223.1C177.453 223.1 177.036 222.998 176.679 222.795C176.323 222.588 176.046 222.287 175.849 221.89C175.653 221.493 175.554 221.008 175.554 220.435C175.554 219.895 175.646 219.422 175.829 219.015C176.013 218.608 176.281 218.293 176.634 218.07C176.991 217.843 177.423 217.73 177.929 217.73C178.406 217.73 178.819 217.835 179.169 218.045C179.523 218.252 179.796 218.557 179.989 218.96C180.183 219.363 180.279 219.855 180.279 220.435C180.279 220.962 180.189 221.425 180.009 221.825C179.833 222.225 179.569 222.538 179.219 222.765C178.873 222.988 178.443 223.1 177.929 223.1ZM177.929 222.37C178.239 222.37 178.501 222.292 178.714 222.135C178.928 221.978 179.089 221.753 179.199 221.46C179.309 221.167 179.364 220.818 179.364 220.415C179.364 220.045 179.316 219.713 179.219 219.42C179.123 219.123 178.968 218.888 178.754 218.715C178.544 218.542 178.269 218.455 177.929 218.455C177.616 218.455 177.351 218.533 177.134 218.69C176.918 218.843 176.753 219.067 176.639 219.36C176.529 219.653 176.474 220.005 176.474 220.415C176.474 220.778 176.524 221.108 176.624 221.405C176.724 221.702 176.881 221.937 177.094 222.11C177.308 222.283 177.586 222.37 177.929 222.37ZM183.302 223.1C183.032 223.097 182.777 223.058 182.537 222.985C182.3 222.908 182.09 222.797 181.907 222.65C181.723 222.503 181.578 222.322 181.472 222.105C181.368 221.885 181.317 221.63 181.317 221.34V217.83H182.242V221.245C182.242 221.582 182.345 221.855 182.552 222.065C182.762 222.275 183.077 222.38 183.497 222.38C183.877 222.38 184.182 222.282 184.412 222.085C184.645 221.885 184.762 221.588 184.762 221.195V217.83H185.682V223H184.947L184.852 222.01C184.788 222.27 184.68 222.48 184.527 222.64C184.377 222.8 184.195 222.918 183.982 222.995C183.772 223.068 183.545 223.103 183.302 223.1ZM187.193 223V217.83H188.073V218.825C188.159 218.578 188.281 218.375 188.438 218.215C188.594 218.052 188.773 217.93 188.973 217.85C189.176 217.77 189.386 217.73 189.603 217.73C189.679 217.73 189.754 217.735 189.828 217.745C189.901 217.755 189.958 217.772 189.998 217.795V218.69C189.948 218.667 189.883 218.652 189.803 218.645C189.726 218.635 189.661 218.63 189.608 218.63C189.401 218.617 189.208 218.63 189.028 218.67C188.848 218.707 188.689 218.772 188.553 218.865C188.416 218.958 188.308 219.082 188.228 219.235C188.151 219.385 188.113 219.568 188.113 219.785V223H187.193ZM40.195 237.1C39.8617 237.1 39.5667 237.042 39.31 236.925C39.0533 236.805 38.8517 236.633 38.705 236.41C38.5617 236.187 38.49 235.917 38.49 235.6C38.49 235.027 38.69 234.6 39.09 234.32C39.49 234.04 40.1317 233.89 41.015 233.87L41.94 233.845V233.44C41.94 233.123 41.845 232.873 41.655 232.69C41.465 232.503 41.17 232.41 40.77 232.41C40.4733 232.413 40.2117 232.483 39.985 232.62C39.7617 232.757 39.6167 232.98 39.55 233.29H38.735C38.755 232.953 38.85 232.67 39.02 232.44C39.19 232.207 39.4267 232.03 39.73 231.91C40.0367 231.79 40.3983 231.73 40.815 231.73C41.265 231.73 41.6383 231.793 41.935 231.92C42.235 232.047 42.4583 232.233 42.605 232.48C42.755 232.727 42.83 233.03 42.83 233.39V237H42.04L41.975 236.03C41.775 236.433 41.52 236.713 41.21 236.87C40.9033 237.023 40.565 237.1 40.195 237.1ZM40.475 236.435C40.6483 236.435 40.82 236.403 40.99 236.34C41.1633 236.277 41.3217 236.192 41.465 236.085C41.6083 235.975 41.7217 235.853 41.805 235.72C41.8917 235.583 41.9367 235.443 41.94 235.3V234.415L41.17 234.43C40.7767 234.437 40.4467 234.477 40.18 234.55C39.9167 234.623 39.7183 234.738 39.585 234.895C39.455 235.052 39.39 235.257 39.39 235.51C39.39 235.8 39.49 236.027 39.69 236.19C39.8933 236.353 40.155 236.435 40.475 236.435ZM46.4695 231.73C46.8395 231.73 47.1729 231.802 47.4695 231.945C47.7662 232.085 48.0079 232.285 48.1945 232.545C48.3845 232.805 48.5029 233.112 48.5495 233.465H47.7295C47.6995 233.285 47.6295 233.12 47.5195 232.97C47.4129 232.82 47.2712 232.7 47.0945 232.61C46.9179 232.52 46.7112 232.475 46.4745 232.475C46.0312 232.475 45.6712 232.635 45.3945 232.955C45.1179 233.275 44.9795 233.765 44.9795 234.425C44.9795 235.022 45.1062 235.5 45.3595 235.86C45.6162 236.217 45.9929 236.395 46.4895 236.395C46.7262 236.395 46.9312 236.35 47.1045 236.26C47.2812 236.167 47.4229 236.045 47.5295 235.895C47.6362 235.742 47.7045 235.578 47.7345 235.405H48.5395C48.4962 235.752 48.3795 236.052 48.1895 236.305C47.9995 236.558 47.7562 236.755 47.4595 236.895C47.1662 237.032 46.8362 237.1 46.4695 237.1C46.0062 237.1 45.5945 236.998 45.2345 236.795C44.8779 236.592 44.5979 236.292 44.3945 235.895C44.1912 235.498 44.0895 235.012 44.0895 234.435C44.0895 233.895 44.1812 233.423 44.3645 233.02C44.5512 232.613 44.8212 232.297 45.1745 232.07C45.5312 231.843 45.9629 231.73 46.4695 231.73ZM51.8602 231.73C52.2302 231.73 52.5635 231.802 52.8602 231.945C53.1568 232.085 53.3985 232.285 53.5852 232.545C53.7752 232.805 53.8935 233.112 53.9402 233.465H53.1202C53.0902 233.285 53.0202 233.12 52.9102 232.97C52.8035 232.82 52.6618 232.7 52.4852 232.61C52.3085 232.52 52.1018 232.475 51.8652 232.475C51.4218 232.475 51.0618 232.635 50.7852 232.955C50.5085 233.275 50.3702 233.765 50.3702 234.425C50.3702 235.022 50.4968 235.5 50.7502 235.86C51.0068 236.217 51.3835 236.395 51.8802 236.395C52.1168 236.395 52.3218 236.35 52.4952 236.26C52.6718 236.167 52.8135 236.045 52.9202 235.895C53.0268 235.742 53.0952 235.578 53.1252 235.405H53.9302C53.8868 235.752 53.7702 236.052 53.5802 236.305C53.3902 236.558 53.1468 236.755 52.8502 236.895C52.5568 237.032 52.2268 237.1 51.8602 237.1C51.3968 237.1 50.9852 236.998 50.6252 236.795C50.2685 236.592 49.9885 236.292 49.7852 235.895C49.5818 235.498 49.4802 235.012 49.4802 234.435C49.4802 233.895 49.5718 233.423 49.7552 233.02C49.9418 232.613 50.2118 232.297 50.5652 232.07C50.9218 231.843 51.3535 231.73 51.8602 231.73ZM57.2458 237.1C56.7691 237.1 56.3524 236.998 55.9958 236.795C55.6391 236.588 55.3624 236.287 55.1658 235.89C54.9691 235.493 54.8708 235.008 54.8708 234.435C54.8708 233.895 54.9624 233.422 55.1458 233.015C55.3291 232.608 55.5974 232.293 55.9508 232.07C56.3074 231.843 56.7391 231.73 57.2458 231.73C57.7224 231.73 58.1358 231.835 58.4858 232.045C58.8391 232.252 59.1124 232.557 59.3058 232.96C59.4991 233.363 59.5958 233.855 59.5958 234.435C59.5958 234.962 59.5058 235.425 59.3258 235.825C59.1491 236.225 58.8858 236.538 58.5358 236.765C58.1891 236.988 57.7591 237.1 57.2458 237.1ZM57.2458 236.37C57.5558 236.37 57.8174 236.292 58.0308 236.135C58.2441 235.978 58.4058 235.753 58.5158 235.46C58.6258 235.167 58.6808 234.818 58.6808 234.415C58.6808 234.045 58.6324 233.713 58.5358 233.42C58.4391 233.123 58.2841 232.888 58.0708 232.715C57.8608 232.542 57.5858 232.455 57.2458 232.455C56.9324 232.455 56.6674 232.533 56.4508 232.69C56.2341 232.843 56.0691 233.067 55.9558 233.36C55.8458 233.653 55.7908 234.005 55.7908 234.415C55.7908 234.778 55.8408 235.108 55.9408 235.405C56.0408 235.702 56.1974 235.937 56.4108 236.11C56.6241 236.283 56.9024 236.37 57.2458 236.37ZM62.6181 237.1C62.3481 237.097 62.0931 237.058 61.8531 236.985C61.6165 236.908 61.4065 236.797 61.2231 236.65C61.0398 236.503 60.8948 236.322 60.7881 236.105C60.6848 235.885 60.6331 235.63 60.6331 235.34V231.83H61.5581V235.245C61.5581 235.582 61.6615 235.855 61.8681 236.065C62.0781 236.275 62.3931 236.38 62.8131 236.38C63.1931 236.38 63.4981 236.282 63.7281 236.085C63.9615 235.885 64.0781 235.588 64.0781 235.195V231.83H64.9981V237H64.2631L64.1681 236.01C64.1048 236.27 63.9965 236.48 63.8431 236.64C63.6931 236.8 63.5115 236.918 63.2981 236.995C63.0881 237.068 62.8615 237.103 62.6181 237.1ZM66.5091 237V231.83H67.4041V232.58C67.4875 232.437 67.6025 232.302 67.7491 232.175C67.8991 232.048 68.0791 231.947 68.2891 231.87C68.5025 231.793 68.7475 231.755 69.0241 231.755C69.3508 231.755 69.6508 231.82 69.9241 231.95C70.2008 232.08 70.4208 232.283 70.5841 232.56C70.7508 232.833 70.8341 233.187 70.8341 233.62V237H69.9091V233.71C69.9091 233.307 69.8025 233.008 69.5891 232.815C69.3791 232.618 69.1058 232.52 68.7691 232.52C68.5358 232.52 68.3175 232.558 68.1141 232.635C67.9108 232.708 67.7458 232.822 67.6191 232.975C67.4925 233.125 67.4291 233.315 67.4291 233.545V237H66.5091ZM74.6631 232.505H73.4981V235.72C73.4981 235.903 73.5165 236.038 73.5531 236.125C73.5931 236.208 73.6581 236.262 73.7481 236.285C73.8415 236.308 73.9681 236.32 74.1281 236.32H74.6931V236.94C74.6298 236.963 74.5331 236.983 74.4031 237C74.2765 237.017 74.1181 237.025 73.9281 237.025C73.5715 237.025 73.2948 236.977 73.0981 236.88C72.9015 236.783 72.7631 236.64 72.6831 236.45C72.6065 236.26 72.5681 236.027 72.5681 235.75V232.505H71.7281V231.83H72.5931L72.8181 230.325H73.4981V231.825H74.6631V232.505ZM79.2963 231.83V237H78.4013V231.83H79.2963ZM79.3163 229.775V230.735H78.3713V229.775H79.3163ZM82.7582 237.1C82.3982 237.1 82.0632 237.045 81.7532 236.935C81.4465 236.822 81.1915 236.647 80.9882 236.41C80.7849 236.17 80.6565 235.865 80.6032 235.495H81.4432C81.4899 235.698 81.5732 235.868 81.6932 236.005C81.8165 236.138 81.9699 236.24 82.1532 236.31C82.3365 236.377 82.5365 236.41 82.7532 236.41C83.0999 236.41 83.3799 236.345 83.5932 236.215C83.8065 236.085 83.9132 235.885 83.9132 235.615C83.9132 235.425 83.8565 235.273 83.7432 235.16C83.6332 235.043 83.4615 234.958 83.2282 234.905L82.1582 234.64C81.7415 234.54 81.4082 234.383 81.1582 234.17C80.9082 233.957 80.7832 233.658 80.7832 233.275C80.7799 232.972 80.8515 232.705 80.9982 232.475C81.1449 232.245 81.3649 232.063 81.6582 231.93C81.9515 231.797 82.3165 231.73 82.7532 231.73C83.3132 231.73 83.7649 231.857 84.1082 232.11C84.4549 232.36 84.6349 232.728 84.6482 233.215H83.8332C83.7999 232.968 83.6882 232.773 83.4982 232.63C83.3115 232.483 83.0599 232.41 82.7432 232.41C82.4132 232.41 82.1449 232.477 81.9382 232.61C81.7315 232.74 81.6282 232.943 81.6282 233.22C81.6282 233.403 81.7015 233.548 81.8482 233.655C81.9949 233.758 82.2115 233.845 82.4982 233.915L83.5332 234.175C83.7732 234.238 83.9699 234.322 84.1232 234.425C84.2799 234.528 84.4032 234.643 84.4932 234.77C84.5865 234.897 84.6515 235.03 84.6882 235.17C84.7282 235.307 84.7482 235.438 84.7482 235.565C84.7482 235.882 84.6682 236.155 84.5082 236.385C84.3515 236.612 84.1249 236.788 83.8282 236.915C83.5349 237.038 83.1782 237.1 82.7582 237.1ZM93.9895 234.245C93.9895 234.828 93.8945 235.335 93.7045 235.765C93.5145 236.192 93.2062 236.522 92.7795 236.755C92.3562 236.985 91.7945 237.1 91.0945 237.1C90.3912 237.1 89.8279 236.983 89.4045 236.75C88.9812 236.513 88.6745 236.178 88.4845 235.745C88.2979 235.312 88.2045 234.795 88.2045 234.195V229.77H89.6895V234.305C89.6895 234.845 89.8195 235.24 90.0795 235.49C90.3395 235.737 90.6779 235.86 91.0945 235.86C91.3712 235.86 91.6162 235.807 91.8295 235.7C92.0429 235.59 92.2095 235.422 92.3295 235.195C92.4529 234.965 92.5145 234.668 92.5145 234.305V229.77H93.9895V234.245ZM98.1559 237.1C97.7992 237.1 97.4492 237.055 97.1059 236.965C96.7625 236.875 96.4492 236.74 96.1659 236.56C95.8825 236.38 95.6475 236.155 95.4609 235.885C95.2775 235.615 95.1675 235.298 95.1309 234.935H96.6259C96.6759 235.155 96.7709 235.34 96.9109 235.49C97.0509 235.64 97.2275 235.755 97.4409 235.835C97.6542 235.915 97.8909 235.955 98.1509 235.955C98.4175 235.955 98.6609 235.922 98.8809 235.855C99.1009 235.788 99.2775 235.688 99.4109 235.555C99.5442 235.418 99.6109 235.248 99.6109 235.045C99.6109 234.862 99.5559 234.712 99.4459 234.595C99.3392 234.478 99.1942 234.383 99.0109 234.31C98.8275 234.237 98.6192 234.177 98.3859 234.13L97.1359 233.875C96.5892 233.772 96.1559 233.555 95.8359 233.225C95.5159 232.892 95.3509 232.448 95.3409 231.895C95.3375 231.442 95.4575 231.05 95.7009 230.72C95.9475 230.387 96.2809 230.13 96.7009 229.95C97.1242 229.77 97.5975 229.68 98.1209 229.68C98.7442 229.68 99.2675 229.778 99.6909 229.975C100.118 230.168 100.441 230.432 100.661 230.765C100.884 231.095 100.999 231.463 101.006 231.87H99.5409C99.5142 231.617 99.4375 231.415 99.3109 231.265C99.1842 231.115 99.0209 231.007 98.8209 230.94C98.6242 230.873 98.3992 230.84 98.1459 230.84C97.9525 230.84 97.7759 230.862 97.6159 230.905C97.4592 230.948 97.3259 231.01 97.2159 231.09C97.1059 231.167 97.0209 231.258 96.9609 231.365C96.9009 231.472 96.8709 231.592 96.8709 231.725C96.8709 231.935 96.9409 232.105 97.0809 232.235C97.2209 232.365 97.4825 232.472 97.8659 232.555L99.1059 232.81C99.5492 232.897 99.9009 233.025 100.161 233.195C100.424 233.365 100.621 233.557 100.751 233.77C100.884 233.983 100.971 234.202 101.011 234.425C101.054 234.645 101.076 234.848 101.076 235.035C101.076 235.425 100.953 235.777 100.706 236.09C100.463 236.4 100.123 236.647 99.6859 236.83C99.2492 237.01 98.7392 237.1 98.1559 237.1ZM107.219 237.1C106.352 237.1 105.649 236.927 105.109 236.58C104.569 236.23 104.259 235.692 104.179 234.965L105.699 234.935C105.779 235.265 105.95 235.517 106.214 235.69C106.48 235.86 106.814 235.945 107.214 235.945C107.454 235.945 107.665 235.907 107.849 235.83C108.035 235.75 108.182 235.643 108.289 235.51C108.395 235.373 108.449 235.218 108.449 235.045C108.449 234.778 108.364 234.58 108.194 234.45C108.024 234.317 107.762 234.21 107.409 234.13L106.224 233.875C105.674 233.765 105.232 233.547 104.899 233.22C104.569 232.89 104.4 232.448 104.394 231.895C104.39 231.442 104.512 231.05 104.759 230.72C105.009 230.387 105.347 230.13 105.774 229.95C106.204 229.77 106.685 229.68 107.219 229.68C107.765 229.68 108.237 229.778 108.634 229.975C109.034 230.168 109.34 230.43 109.554 230.76C109.77 231.087 109.875 231.448 109.869 231.845L108.394 231.87C108.347 231.55 108.24 231.298 108.074 231.115C107.907 230.932 107.63 230.84 107.244 230.84C107.044 230.84 106.865 230.862 106.709 230.905C106.552 230.948 106.417 231.01 106.304 231.09C106.19 231.167 106.104 231.258 106.044 231.365C105.987 231.472 105.959 231.592 105.959 231.725C105.959 231.935 106.029 232.102 106.169 232.225C106.312 232.345 106.58 232.457 106.974 232.56L108.139 232.845C108.795 233.002 109.269 233.27 109.559 233.65C109.852 234.03 109.999 234.492 109.999 235.035C109.999 235.452 109.884 235.815 109.654 236.125C109.427 236.435 109.105 236.675 108.689 236.845C108.272 237.015 107.782 237.1 107.219 237.1ZM106.594 228.735H107.859V230.035H106.594V228.735ZM106.569 236.655H107.829V237.955H106.569V236.655ZM112.21 237V231.585H110.92V230.76C111.334 230.76 111.667 230.722 111.92 230.645C112.177 230.565 112.369 230.452 112.495 230.305C112.622 230.155 112.697 229.977 112.72 229.77H113.69V237H112.21ZM117.998 229.67C118.858 229.67 119.536 229.992 120.033 230.635C120.529 231.275 120.778 232.197 120.778 233.4C120.778 234.597 120.533 235.515 120.043 236.155C119.553 236.792 118.871 237.11 117.998 237.11C117.121 237.11 116.436 236.792 115.943 236.155C115.453 235.518 115.208 234.602 115.208 233.405C115.208 232.605 115.321 231.927 115.548 231.37C115.774 230.813 116.096 230.392 116.513 230.105C116.929 229.815 117.424 229.67 117.998 229.67ZM117.998 235.915C118.428 235.915 118.743 235.723 118.943 235.34C119.143 234.953 119.243 234.308 119.243 233.405C119.243 232.482 119.141 231.82 118.938 231.42C118.734 231.02 118.419 230.82 117.993 230.82C117.566 230.82 117.248 231.022 117.038 231.425C116.831 231.828 116.728 232.488 116.728 233.405C116.728 234.305 116.831 234.948 117.038 235.335C117.244 235.722 117.564 235.915 117.998 235.915ZM124.899 229.77H126.334V234.175H127.449V235.4H126.334V237H124.929L124.934 235.4H121.604V234.2L124.899 229.77ZM122.954 234.175H124.934V231.525L122.954 234.175ZM128.231 237V235.41H129.831V237H128.231ZM133.527 237.11C133.077 237.11 132.657 237.023 132.267 236.85C131.877 236.677 131.558 236.433 131.312 236.12C131.065 235.803 130.927 235.433 130.897 235.01H132.287C132.347 235.29 132.48 235.518 132.687 235.695C132.893 235.868 133.153 235.955 133.467 235.955C133.813 235.955 134.117 235.873 134.377 235.71C134.64 235.547 134.837 235.287 134.967 234.93C135.1 234.573 135.147 234.107 135.107 233.53C135.013 233.707 134.883 233.862 134.717 233.995C134.553 234.125 134.362 234.227 134.142 234.3C133.922 234.37 133.677 234.405 133.407 234.405C132.917 234.405 132.482 234.313 132.102 234.13C131.725 233.943 131.428 233.68 131.212 233.34C130.998 232.997 130.892 232.59 130.892 232.12C130.892 231.647 131.005 231.225 131.232 230.855C131.458 230.485 131.775 230.195 132.182 229.985C132.588 229.775 133.065 229.67 133.612 229.67C134.225 229.67 134.753 229.817 135.197 230.11C135.643 230.4 135.985 230.813 136.222 231.35C136.462 231.883 136.582 232.512 136.582 233.235C136.582 234.098 136.458 234.818 136.212 235.395C135.968 235.968 135.618 236.398 135.162 236.685C134.705 236.968 134.16 237.11 133.527 237.11ZM133.657 233.245C133.86 233.245 134.057 233.2 134.247 233.11C134.44 233.017 134.598 232.9 134.722 232.76C134.845 232.62 134.907 232.475 134.907 232.325C134.91 232.002 134.858 231.725 134.752 231.495C134.648 231.262 134.502 231.083 134.312 230.96C134.125 230.837 133.907 230.775 133.657 230.775C133.427 230.775 133.222 230.828 133.042 230.935C132.862 231.042 132.72 231.192 132.617 231.385C132.513 231.578 132.462 231.802 132.462 232.055C132.462 232.432 132.572 232.725 132.792 232.935C133.012 233.142 133.3 233.245 133.657 233.245ZM140.224 229.67C141.084 229.67 141.762 229.992 142.259 230.635C142.756 231.275 143.004 232.197 143.004 233.4C143.004 234.597 142.759 235.515 142.269 236.155C141.779 236.792 141.097 237.11 140.224 237.11C139.347 237.11 138.662 236.792 138.169 236.155C137.679 235.518 137.434 234.602 137.434 233.405C137.434 232.605 137.547 231.927 137.774 231.37C138.001 230.813 138.322 230.392 138.739 230.105C139.156 229.815 139.651 229.67 140.224 229.67ZM140.224 235.915C140.654 235.915 140.969 235.723 141.169 235.34C141.369 234.953 141.469 234.308 141.469 233.405C141.469 232.482 141.367 231.82 141.164 231.42C140.961 231.02 140.646 230.82 140.219 230.82C139.792 230.82 139.474 231.022 139.264 231.425C139.057 231.828 138.954 232.488 138.954 233.405C138.954 234.305 139.057 234.948 139.264 235.335C139.471 235.722 139.791 235.915 140.224 235.915ZM143.989 237V235.82H145.089V237H143.989Z" fill="#36536B"/>
</g>
<defs>
<filter id="filter0_d_0_1" x="-52.4321" y="-54.4305" width="417.649" height="658.861" filterUnits="userSpaceOnUse" color-interpolation-filters="sRGB">
<feFlood flood-opacity="0" result="BackgroundImageFix"/>
<feColorMatrix in="SourceAlpha" type="matrix" values="0 0 0 0 0 0 0 0 0 0 0 0 0 0 0 0 0 0 127 0" result="hardAlpha"/>
<feOffset dx="25" dy="25"/>
<feGaussianBlur stdDeviation="40"/>
<feColorMatrix type="matrix" values="0 0 0 0 0.212302 0 0 0 0 0.32521 0 0 0 0 0.419299 0 0 0 0.300727 0"/>
<feBlend mode="normal" in2="BackgroundImageFix" result="effect1_dropShadow_0_1"/>
<feBlend mode="normal" in="SourceGraphic" in2="effect1_dropShadow_0_1" result="shape"/>
</filter>
<filter id="filter1_d_0_1" x="17" y="162" width="248" height="117" filterUnits="userSpaceOnUse" color-interpolation-filters="sRGB">
<feFlood flood-opacity="0" result="BackgroundImageFix"/>
<feColorMatrix in="SourceAlpha" type="matrix" values="0 0 0 0 0 0 0 0 0 0 0 0 0 0 0 0 0 0 127 0" result="hardAlpha"/>
<feMorphology radius="10" operator="erode" in="SourceAlpha" result="effect1_dropShadow_0_1"/>
<feOffset dx="10" dy="10"/>
<feGaussianBlur stdDeviation="12.5"/>
<feColorMatrix type="matrix" values="0 0 0 0 0.212302 0 0 0 0 0.32521 0 0 0 0 0.419299 0 0 0 0.25 0"/>
<feBlend mode="normal" in2="BackgroundImageFix" result="effect1_dropShadow_0_1"/>
<feBlend mode="normal" in="SourceGraphic" in2="effect1_dropShadow_0_1" result="shape"/>
</filter>
<linearGradient id="paint0_linear_0_1" x1="10.0146" y1="0" x2="10.0146" y2="12.3239" gradientUnits="userSpaceOnUse">
<stop stop-color="#454545"/>
<stop offset="0.226279" stop-color="#999999"/>
<stop offset="1" stop-color="white"/>
</linearGradient>
<linearGradient id="paint1_linear_0_1" x1="260.103" y1="85.7474" x2="250.642" y2="85.7474" gradientUnits="userSpaceOnUse">
<stop stop-color="white" stop-opacity="0.01"/>
<stop offset="0.222178" stop-color="#BABABA"/>
<stop offset="0.54678" stop-color="white" stop-opacity="0.01"/>
<stop offset="1" stop-color="white" stop-opacity="0.01"/>
</linearGradient>
<linearGradient id="paint2_linear_0_1" x1="2.56798" y1="85.4868" x2="12.044" y2="85.4868" gradientUnits="userSpaceOnUse">
<stop stop-color="white" stop-opacity="0.01"/>
<stop offset="0.222178" stop-color="#BABABA"/>
<stop offset="0.54678" stop-color="white" stop-opacity="0.01"/>
<stop offset="1" stop-color="white" stop-opacity="0.01"/>
</linearGradient>
<linearGradient id="paint3_linear_0_1" x1="15.907" y1="12.4445" x2="15.907" y2="473.824" gradientUnits="userSpaceOnUse">
<stop stop-color="#9CB6CD"/>
<stop offset="0.420564" stop-color="#9AB3CA"/>
<stop offset="0.716592" stop-color="#557496"/>
<stop offset="1" stop-color="#475178"/>
</linearGradient>
<clipPath id="clip0_0_1">
<rect width="1440" height="3066" fill="white" transform="translate(-917 -162)"/>
</clipPath>
<clipPath id="clip1_0_1">
<rect width="233" height="465" fill="white" transform="translate(15.0742 12.4445)"/>
</clipPath>
<clipPath id="clip2_0_1">
<rect width="187" height="11" fill="white" transform="translate(38 183)"/>
</clipPath>
</defs>
</svg>
